<?xml version="1.0" encoding="UTF-8"?>
<!DOCTYPE svg PUBLIC "-//W3C//DTD SVG 1.1//EN" "http://www.w3.org/Graphics/SVG/1.1/DTD/svg11.dtd">
<!-- Creator: CorelDRAW 2021 (64-Bit) -->
<svg xmlns="http://www.w3.org/2000/svg" xml:space="preserve" width="6.447mm" height="6.447mm" version="1.1" style="shape-rendering:geometricPrecision; text-rendering:geometricPrecision; image-rendering:optimizeQuality; fill-rule:evenodd; clip-rule:evenodd"
viewBox="0 0 17.66 17.66"
 xmlns:xlink="http://www.w3.org/1999/xlink"
 xmlns:xodm="http://www.corel.com/coreldraw/odm/2003">
 <defs>
  <style type="text/css">
   <![CDATA[
    .str0 {stroke:#FEFEFE;stroke-width:0.55;stroke-linecap:round;stroke-linejoin:round;stroke-miterlimit:22.9256}
    .fil1 {fill:none}
    .fil0 {fill:#FEFEFE;fill-rule:nonzero}
   ]]>
  </style>
 </defs>
 <g id="Capa_x0020_1">
  <metadata id="CorelCorpID_0Corel-Layer"/>
  <path class="fil0" d="M12.16 14.16c-1.07,1 -2.25,-0.06 -3.45,-0.01 -0.57,0.02 -1.07,0.32 -1.62,0.46 -0.97,0.24 -1.55,-0.46 -2.03,-1.19 -0.82,-1.24 -1.57,-2.58 -1.67,-4.1 -0.1,-1.52 0.56,-3.42 2.24,-3.73 1.2,-0.22 2.12,0.58 3.27,0.67 0.02,0.01 0.04,0.01 0.07,0.01 0.33,-0 0.65,-0.08 0.97,-0.18 0.15,-0.04 0.3,-0.09 0.45,-0.15 0.68,-0.23 1.35,-0.48 2.06,-0.28 1.92,0.52 2.03,2.91 1.67,4.5 -0.31,1.36 -0.91,3.04 -1.95,4.01zm-5.08 -10.37c0.06,-0.22 0.14,-0.46 0.27,-0.66 0.6,0.49 1.16,1.27 1.36,2.06 -0.35,-0.65 -0.93,-1.14 -1.63,-1.4zm4.43 -0.73c0.2,0.7 0.03,1.58 -0.49,2.11 -0.48,0.49 -1.21,0.65 -1.87,0.75 0,-0.01 0.01,-0.03 0.01,-0.04 -0.1,-1.37 0.99,-2.64 2.36,-2.81zm1.23 2.36c-0.51,-0.19 -1,-0.16 -1.48,-0.05 0.03,-0.03 0.06,-0.06 0.09,-0.09 0.53,-0.64 0.71,-1.6 0.45,-2.39 -0,-0.01 -0.01,-0.02 -0.02,-0.04 -0.01,-0.07 -0.06,-0.14 -0.15,-0.13 -1.24,0.1 -2.32,0.99 -2.67,2.14 -0.28,-0.83 -0.9,-1.61 -1.55,-2.09 -0.05,-0.04 -0.1,-0.04 -0.14,-0.02 -0,0 -0.01,0.01 -0.01,0.01 -0.01,0.01 -0.02,0.01 -0.03,0.02 -0.01,0.01 -0.01,0.01 -0.02,0.01 -0.25,0.28 -0.38,0.7 -0.48,1.05 -0.02,0.06 0,0.11 0.03,0.14 0.02,0.02 0.04,0.05 0.08,0.06 0.89,0.27 1.55,0.97 1.8,1.86 -0.99,-0.16 -1.83,-0.79 -2.9,-0.66 -1.03,0.13 -1.84,0.84 -2.27,1.77 -1.11,2.39 0.17,5.26 1.73,7.14 0.82,0.99 1.58,0.88 2.7,0.51 0.81,-0.27 1.36,-0.11 2.15,0.08 0.44,0.11 0.93,0.22 1.38,0.15 1.09,-0.17 1.79,-1.49 2.18,-2.4 0.58,-1.33 1.02,-2.69 0.98,-4.16 -0.04,-1.21 -0.66,-2.48 -1.85,-2.93zm-6.75 1.11c-1.08,0.45 -1.63,1.81 -1.45,2.91 0.03,0.2 0.34,0.12 0.31,-0.08 -0.15,-0.91 0.32,-2.14 1.22,-2.52 0.19,-0.08 0.11,-0.39 -0.09,-0.31zm-1.23 3.57c-0.21,0 -0.21,0.32 0,0.32 0.21,0 0.21,-0.32 0,-0.32z"/>
  <circle class="fil1 str0" cx="8.83" cy="8.83" r="8.56"/>
 </g>
</svg>
