<?xml version="1.0" encoding="UTF-8"?>
<!DOCTYPE svg PUBLIC "-//W3C//DTD SVG 1.1//EN" "http://www.w3.org/Graphics/SVG/1.1/DTD/svg11.dtd">
<!-- Creator: CorelDRAW 2021 (64-Bit) -->
<svg xmlns="http://www.w3.org/2000/svg" xml:space="preserve" width="6.447mm" height="6.447mm" version="1.1" style="shape-rendering:geometricPrecision; text-rendering:geometricPrecision; image-rendering:optimizeQuality; fill-rule:evenodd; clip-rule:evenodd"
viewBox="0 0 26.92 26.92"
 xmlns:xlink="http://www.w3.org/1999/xlink"
 xmlns:xodm="http://www.corel.com/coreldraw/odm/2003">
 <defs>
  <style type="text/css">
   <![CDATA[
    .str0 {stroke:#FEFEFE;stroke-width:0.83;stroke-linecap:round;stroke-linejoin:round;stroke-miterlimit:22.9256}
    .fil1 {fill:none}
    .fil0 {fill:#FEFEFE;fill-rule:nonzero}
   ]]>
  </style>
 </defs>
 <g id="Capa_x0020_1">
  <metadata id="CorelCorpID_0Corel-Layer"/>
  <g id="_2149412063504">
   <path class="fil0" d="M18.03 20.23c-0.02,0.75 0.1,2.08 -0.5,2.54 -0.6,0.46 -1.81,0.22 -2.55,0.23 -0.94,0.01 -1.87,0.03 -2.81,0.03 -0.84,-0 -2.78,0.27 -3.17,-0.72 -0.22,-0.56 -0.09,-1.59 -0.1,-2.21 -0.02,-0.77 -0.03,-1.54 0.01,-2.31 0.05,-0.78 0.12,-1.28 0.59,-1.89 0.29,-0.39 0.57,-0.74 0.65,-1.23 0.08,-0.51 -0.01,-0.98 -0.3,-1.4 -0.24,-0.35 -0.48,-0.52 -0.6,-0.96 -0.14,-0.51 -0.09,-1.07 -0.1,-1.6 -0.04,-1.08 -0.15,-2.32 1.17,-2.52 1.11,-0.17 2.2,-0.18 3.31,-0.18 0.85,0.05 1.71,0.08 2.57,0.14 0.56,0.04 1.19,-0 1.48,0.64 0.16,0.34 0.11,0.82 0.13,1.19 0.03,0.62 0.1,1.26 0.09,1.88 -0.01,0.74 -0.39,1.05 -0.75,1.61 -0.5,0.76 -0.37,1.63 0.21,2.31 0.15,0.17 0.4,0.32 0.5,0.53 0.18,0.36 0.11,1.01 0.13,1.41 0.04,0.84 0.06,1.68 0.04,2.51zm-6.66 -14.09c0.62,-0.07 1.26,-0.06 1.89,-0.07 0.62,-0.01 1.25,-0.03 1.88,-0.02 1.2,0.01 1.24,0.66 1.2,1.64 -0.89,-0.09 -1.82,-0.08 -2.7,-0.13 -0.99,0 -1.97,-0.01 -2.95,0.12 -0.07,-0.67 -0.12,-1.45 0.69,-1.53zm1.37 -1.16c0.31,-0.02 0.62,-0.06 0.79,-0.07 0.15,-0 0.42,0.01 0.69,-0 0.02,0.11 0.01,0.25 0.02,0.34 0.01,0.09 0.02,0.19 0.02,0.28 -0.44,0.03 -0.86,0.08 -1.19,0.09 -0.09,0 -0.19,-0 -0.3,-0 -0.02,-0.21 -0.04,-0.43 -0.04,-0.64zm-0.22 -0.88c0.32,-0.21 0.65,-0.22 1.02,-0.22 0.22,0 0.46,-0.03 0.66,0.05 0.09,0.04 0.53,0.32 0.5,0.42 -0.05,0.17 -1,0.1 -1.16,0.1 -0.37,0.02 -0.75,0.05 -1.12,0.03 -0.03,-0 -0.23,0.01 -0.24,-0.02 -0.04,-0.07 0.3,-0.33 0.35,-0.37zm5.91 13.23c-0.03,-0.61 0.01,-1 -0.35,-1.47 -0.22,-0.28 -0.48,-0.44 -0.63,-0.79 -0.45,-1.02 0.2,-1.31 0.63,-1.99 0.3,-0.48 0.3,-1 0.27,-1.56 -0.04,-0.87 0.01,-1.86 -0.2,-2.71 -0.16,-0.64 -0.45,-0.89 -1.09,-1.01 -0.09,-0.02 -0.18,-0.02 -0.27,-0.04 0.04,-0.66 0.11,-1.62 -0.51,-1.99 -0.39,-0.24 -0.97,-0.28 -1.55,-0.26 -0.01,-0.21 -0.01,-0.44 -0.05,-0.65 0.29,-0.07 0.51,-0.22 0.48,-0.52 -0.07,-0.75 -1.07,-0.9 -1.62,-0.9l-0.02 0 -0.02 0 -0.02 0c-0.46,0 -0.85,0.02 -1.23,0.31 -0.25,0.19 -0.63,0.51 -0.52,0.88 0.06,0.22 0.29,0.32 0.56,0.35 -0,0.21 0.02,0.42 0.03,0.63 -0.56,-0.02 -1.18,-0.03 -1.57,0.17 -0.7,0.35 -0.58,1.34 -0.51,1.97 -0.54,0.07 -1.08,0.16 -1.35,0.67 -0.33,0.63 -0.21,1.64 -0.19,2.32 0.03,0.88 -0.08,1.63 0.41,2.38 0.28,0.43 0.64,0.7 0.63,1.25 -0.02,0.63 -0.38,0.97 -0.73,1.46 -0.32,0.45 -0.43,0.84 -0.49,1.39 -0.11,0.91 -0.08,1.83 -0.06,2.74 0.02,0.82 -0.12,1.99 0.15,2.77 0.18,0.51 0.51,0.6 1,0.67 1.26,0.18 2.6,0.11 3.87,0.1 1.15,-0.01 2.32,0.02 3.47,-0.02 0.49,-0.02 0.97,-0.03 1.24,-0.49 0.34,-0.57 0.25,-1.58 0.29,-2.21 0.06,-1.15 0.02,-2.3 -0.04,-3.44z"/>
   <path class="fil0" d="M11.78 13.87c1.18,0.11 2.35,0.1 3.52,-0.03 0.29,-0.03 0.29,-0.49 0,-0.46 -1.18,0.13 -2.35,0.14 -3.52,0.03 -0.29,-0.03 -0.29,0.43 0,0.46z"/>
   <path class="fil0" d="M15.43 15.29c-1.29,-0.3 -2.57,-0.32 -3.87,-0.06 -0.29,0.06 -0.17,0.5 0.12,0.44 1.21,-0.25 2.42,-0.23 3.62,0.06 0.29,0.07 0.41,-0.37 0.12,-0.44z"/>
   <path class="fil0" d="M10.01 9.14c-0.56,0.45 -0.38,1.23 -0.36,1.87 0.01,0.29 0.47,0.29 0.46,0 -0.02,-0.49 -0.19,-1.2 0.23,-1.54 0.23,-0.19 -0.1,-0.51 -0.32,-0.32z"/>
   <path class="fil0" d="M10.76 8.62c-0.29,0 -0.29,0.46 0,0.46 0.29,0 0.29,-0.46 0,-0.46z"/>
  </g>
  <circle class="fil1 str0" cx="13.46" cy="13.46" r="13.04"/>
 </g>
</svg>
