<?xml version="1.0" encoding="UTF-8"?>
<!DOCTYPE svg PUBLIC "-//W3C//DTD SVG 1.1//EN" "http://www.w3.org/Graphics/SVG/1.1/DTD/svg11.dtd">
<!-- Creator: CorelDRAW 2021 (64-Bit) -->
<svg xmlns="http://www.w3.org/2000/svg" xml:space="preserve" width="6.447mm" height="6.447mm" version="1.1" style="shape-rendering:geometricPrecision; text-rendering:geometricPrecision; image-rendering:optimizeQuality; fill-rule:evenodd; clip-rule:evenodd"
viewBox="0 0 26.92 26.92"
 xmlns:xlink="http://www.w3.org/1999/xlink"
 xmlns:xodm="http://www.corel.com/coreldraw/odm/2003">
 <defs>
  <style type="text/css">
   <![CDATA[
    .str0 {stroke:#FEFEFE;stroke-width:0.83;stroke-linecap:round;stroke-linejoin:round;stroke-miterlimit:22.9256}
    .fil1 {fill:none}
    .fil0 {fill:#FEFEFE;fill-rule:nonzero}
   ]]>
  </style>
 </defs>
 <g id="Capa_x0020_1">
  <metadata id="CorelCorpID_0Corel-Layer"/>
  <path class="fil0" d="M21.35 18.32c-0.46,1.54 -1.7,2.79 -2.97,3.74 -1.54,1.15 -3.45,1.44 -5.33,1.4 -1.68,-0.03 -2.84,-0.38 -4.21,-1.28 -2.89,-1.91 -4.29,-5.54 -3.5,-8.91 0.91,-3.9 4.37,-6.55 8.32,-6.63 3.85,0.08 6.93,2.4 7.84,6.19 0.42,1.74 0.37,3.78 -0.15,5.49zm-9.45 -12.57c0.35,-0.01 0.69,-0.03 0.91,-0.04 0.53,-0 1.07,-0.02 1.6,-0.04 0.09,-0 0.19,0 0.3,0.01 -0,0.19 0.01,0.37 0.02,0.56 -0.36,-0.04 -0.72,-0.08 -1.08,-0.08 -0.59,0.01 -1.17,0.08 -1.74,0.2 -0.01,-0.2 -0.01,-0.41 -0.01,-0.61zm-0.97 -0.9c-0.05,-0.13 -0.03,-0.49 0,-0.62 0.1,-0.54 0.4,-0.6 0.95,-0.69 0.48,-0.08 1.01,-0.05 1.49,-0.06 0.45,0 0.9,-0.02 1.35,0.02 0.48,0.04 0.69,0.02 0.84,0.51 0.05,0.18 0.11,0.68 0.04,0.87 -0.17,0.45 -0.53,0.31 -1.02,0.32 -0.54,0.01 -1.07,0.04 -1.61,0.04 -0.55,0 -1.84,0.18 -2.04,-0.38zm8.62 2.47c0.15,0.12 0.31,0.22 0.44,0.32 0.11,0.09 0.23,0.18 0.34,0.27 -0.21,0.22 -0.43,0.43 -0.63,0.67 -0.15,-0.16 -0.3,-0.31 -0.46,-0.46 -0.08,-0.07 -0.16,-0.13 -0.24,-0.19 0.18,-0.21 0.37,-0.4 0.55,-0.6zm0.34 -1.19c0.23,0.04 0.66,0.49 0.84,0.63 0.21,0.17 0.49,0.35 0.65,0.56 0.17,0.22 0.03,0.5 -0.19,0.67 -0.33,-0.21 -0.65,-0.51 -0.95,-0.75 -0.28,-0.22 -0.62,-0.45 -0.84,-0.75 0.12,-0.18 0.33,-0.38 0.49,-0.36zm2.27 7.81c-0.23,-1.88 -0.94,-3.6 -2.14,-5.01 0.2,-0.26 0.45,-0.49 0.68,-0.73 0.11,0.09 0.24,0.24 0.38,0.28 0.28,0.09 0.47,-0.16 0.63,-0.37 0.18,-0.23 0.41,-0.51 0.28,-0.81 -0.15,-0.35 -0.64,-0.64 -0.92,-0.88 -0.32,-0.25 -0.7,-0.66 -1.09,-0.79 -0.36,-0.12 -0.6,0.12 -0.81,0.38 -0.16,0.2 -0.36,0.37 -0.24,0.64 0.06,0.13 0.15,0.24 0.26,0.35 -0.19,0.2 -0.38,0.41 -0.56,0.62 -1,-0.69 -2.2,-1.12 -3.42,-1.32 -0.02,-0.2 -0.03,-0.4 -0.03,-0.61 0.17,-0 0.34,-0.01 0.47,-0.06 0.39,-0.14 0.4,-0.33 0.42,-0.77 0.03,-0.5 0.1,-1.35 -0.35,-1.68 -0.53,-0.39 -1.75,-0.19 -2.35,-0.19 -1.19,0.04 -2.85,-0.33 -2.92,1.23 -0.01,0.31 -0.11,1.03 0.17,1.28 0.17,0.15 0.47,0.21 0.79,0.23 0,0.22 0,0.45 0.01,0.67 0,0.02 0.01,0.04 0.01,0.05 -2.76,0.71 -5.08,2.64 -6.17,5.4 -1.35,3.38 -0.5,7.77 2.43,10.1 1.1,0.88 2.3,1.64 3.71,1.85 2.14,0.32 4.52,0.2 6.46,-0.84 1.3,-0.7 2.59,-1.94 3.35,-3.19 0.99,-1.62 1.16,-3.99 0.94,-5.84zm-1.97 -0.26c0.38,2.14 -0.35,4.18 -1.82,5.74 -0.97,1.03 -2,2.07 -3.41,2.38 -1.55,0.34 -3.09,0.26 -4.51,-0.54 -1.59,-0.89 -3.36,-2.33 -3.72,-4.2 -0.37,-1.95 -0.07,-4.08 1.08,-5.72 2.25,-3.23 6.65,-3.82 9.81,-1.62 1.25,0.99 2.29,2.36 2.58,3.95zm-2.27 -4.32c-0.01,-0.01 -0.02,-0.01 -0.02,-0.01 -0.01,-0.01 -0.01,-0.02 -0.02,-0.03 -2.67,-1.87 -6.21,-1.93 -8.84,0.07 -2.47,1.87 -3.51,5.22 -2.68,8.21 0.78,2.8 4.5,5.06 7.3,4.89 0.88,-0.05 1.93,-0.21 2.69,-0.67 1.26,-0.77 2.51,-2.02 3.33,-3.24 2.08,-3.11 1.06,-7.03 -1.76,-9.22zm-5.02 6.05c-0.21,-0.16 -0.17,-0.6 -0.03,-0.8 0.19,-0.29 0.6,-0.28 0.8,-0.01 0.01,0.01 0.01,0.01 0.02,0.02 0.01,0.01 0.01,0.02 0.02,0.03 0.48,0.57 -0.27,1.17 -0.81,0.76zm3.74 -4.04c-0.92,0.93 -1.83,1.86 -2.75,2.79 -0.35,-0.28 -0.83,-0.34 -1.21,-0.04 -0.41,0.33 -0.58,1.16 -0.19,1.56 0.37,0.39 1.12,0.44 1.53,0.09 0.39,-0.33 0.41,-0.83 0.19,-1.25 0.93,-0.94 1.85,-1.88 2.78,-2.82 0.22,-0.22 -0.12,-0.56 -0.34,-0.34zm-5.97 -1.24c-1.61,0.86 -2.44,2.45 -2.85,4.17 -0.07,0.3 0.39,0.43 0.46,0.13 0.38,-1.6 1.13,-3.08 2.63,-3.88 0.27,-0.15 0.03,-0.56 -0.24,-0.41zm-2.74 5.29c-0.31,0 -0.31,0.48 0,0.48 0.31,0 0.31,-0.48 0,-0.48zm5.64 -10.76c-0.02,-0.23 -0.03,-0.46 -0.05,-0.69 -0.02,-0.31 -0.5,-0.31 -0.48,0 0.02,0.23 0.03,0.46 0.05,0.69 0.02,0.31 0.5,0.31 0.48,0zm1.23 -0.18c-0.01,-0.19 -0.01,-0.37 -0.02,-0.56 -0.01,-0.31 -0.49,-0.31 -0.48,0 0.01,0.19 0.01,0.37 0.02,0.56 0.01,0.31 0.49,0.31 0.48,0zm-2.62 0.18c-0.03,-0.2 -0.03,-0.41 -0.02,-0.62 0.02,-0.31 -0.46,-0.31 -0.48,0 -0.02,0.25 0,0.5 0.04,0.74 0.05,0.3 0.51,0.17 0.46,-0.13z"/>
  <circle class="fil1 str0" cx="13.46" cy="13.46" r="13.04"/>
 </g>
</svg>
