<?xml version="1.0" encoding="UTF-8"?>
<!DOCTYPE svg PUBLIC "-//W3C//DTD SVG 1.1//EN" "http://www.w3.org/Graphics/SVG/1.1/DTD/svg11.dtd">
<!-- Creator: CorelDRAW 2021 (64-Bit) -->
<svg xmlns="http://www.w3.org/2000/svg" xml:space="preserve" width="6.447mm" height="6.447mm" version="1.1" style="shape-rendering:geometricPrecision; text-rendering:geometricPrecision; image-rendering:optimizeQuality; fill-rule:evenodd; clip-rule:evenodd"
viewBox="0 0 24.45 24.45"
 xmlns:xlink="http://www.w3.org/1999/xlink"
 xmlns:xodm="http://www.corel.com/coreldraw/odm/2003">
 <defs>
  <style type="text/css">
   <![CDATA[
    .str0 {stroke:#FEFEFE;stroke-width:0.76;stroke-linecap:round;stroke-linejoin:round;stroke-miterlimit:22.9256}
    .fil1 {fill:none}
    .fil0 {fill:#FEFEFE;fill-rule:nonzero}
   ]]>
  </style>
 </defs>
 <g id="Capa_x0020_1">
  <metadata id="CorelCorpID_0Corel-Layer"/>
  <g id="_2149070761728">
   <path class="fil0" d="M20.6 12.85c-0.02,-0.4 -0.04,-0.78 -0.04,-1.14 -0,-0.02 -0,-0.05 -0,-0.07 0.1,0 0.19,0 0.29,0 0.14,0.01 0.15,-0.03 0.19,0.09 0.03,0.09 0,0.24 0.01,0.34 0.01,0.12 0.02,0.24 0.03,0.36 0.01,0.1 0.01,0.19 0.01,0.29 0,0.01 -0.01,0.07 -0.01,0.1 -0.01,0.01 -0.03,0.01 -0.04,0.01 -0.15,-0 -0.29,0.01 -0.44,0.02zm-0.48 1.1c-0.01,0.29 0.02,0.65 -0.05,0.94 -0.18,0.71 -0.63,0.67 -1.25,0.68 -0.01,-0.45 -0.05,-0.91 -0.04,-1.32 0.01,-0.79 0.01,-1.57 -0,-2.35 -0.02,-0.99 0.05,-1.98 0.02,-2.97 0.26,0.01 0.54,0 0.78,0.07 0.47,0.13 0.48,0.17 0.53,0.71 0.06,0.66 0.01,1.35 0.02,2.01 0.01,0.74 0.02,1.49 -0.01,2.23zm-1.75 -3.98c-0.02,0.64 -0.03,1.28 -0.02,1.92 0.02,0.91 0.01,1.81 -0,2.72 -0.01,1 0.29,2.3 -1.13,2.32 -0.24,0 -0.68,0.09 -0.9,-0.01 -0.64,-0.28 -0.52,-0.77 -0.53,-1.29 -0.02,-0.9 -0.02,-1.79 -0.01,-2.69 0.01,-0.93 0.04,-1.86 0.06,-2.79 0.03,-1.01 -0.27,-2.74 1.18,-2.73 0.86,0.01 1.19,0.29 1.33,1.19 0.07,0.44 0.02,0.91 0.01,1.35zm-9.26 2.84c-0,-0.37 -0.01,-0.74 -0.01,-1.1 0.95,-0.04 1.91,-0.04 2.87,-0.05 1.11,-0.01 2.29,0.11 3.4,0.02 -0,0.37 -0.01,0.74 -0.01,1.1 -2.07,0.11 -4.17,0.01 -6.25,0.03zm-0.44 3.28c-0.03,0.46 0.02,0.79 -0.47,0.9 -0.27,0.06 -0.68,0 -0.94,0 -0.51,-0.01 -1,-0.23 -1.15,-0.77 -0.11,-0.39 0.01,-0.97 0.01,-1.37 -0.01,-0.97 -0.03,-1.94 -0.01,-2.91 0.01,-0.64 -0.01,-1.28 -0.02,-1.92 -0.01,-0.51 0.03,-1.01 0.03,-1.52 -0.01,-0.83 0.55,-1.02 1.32,-1.02 0.37,-0 0.85,0.19 1.06,0.53 0.12,0.19 0.06,0.66 0.07,0.9 0.03,0.5 0.03,0.99 0.05,1.49 0.03,0.95 0.05,1.9 0.06,2.85 0.01,0.95 0.04,1.91 -0.02,2.85zm-4.27 -1.19c-0.08,-0.32 -0.05,-0.7 -0.06,-1.03 -0.05,-0.89 -0.07,-1.79 -0.06,-2.68 0,-0.53 -0.05,-1.15 0.07,-1.67 0.15,-0.6 0.73,-0.53 1.3,-0.55 -0.02,0.99 0.08,1.99 0.06,2.97 -0.02,1.2 -0.09,2.46 -0.04,3.68 -0.66,-0.01 -1.07,0.03 -1.25,-0.72zm-1.03 -2.12c-0.02,-0.19 0,-0.4 -0,-0.58 -0,-0.11 -0,-0.23 -0,-0.34 0,-0.03 0.03,-0.17 -0.01,-0.18 0.07,-0.02 0.23,-0 0.28,-0.01 0.07,-0 0.14,0 0.21,0 -0.01,0.37 -0.02,0.75 -0.03,1.14 -0.15,0.01 -0.31,-0 -0.45,-0.03zm18.12 -0.33c-0.01,-0.16 -0.03,-0.32 -0.04,-0.49 -0.01,-0.19 0.03,-0.38 -0.08,-0.54 -0.19,-0.25 -0.54,-0.22 -0.83,-0.21 -0.01,-0.43 -0.02,-0.85 -0.02,-1.28 0,-0.29 0.1,-0.79 -0.08,-1.06 -0.29,-0.43 -1.15,-0.37 -1.67,-0.39 -0,-0.07 -0,-0.14 -0.01,-0.22 -0.1,-1.1 -0.69,-1.27 -1.74,-1.28 -1.16,-0.01 -1.46,0.4 -1.54,1.54 -0.06,0.9 -0.09,1.81 -0.1,2.71 -1.11,0.09 -2.29,-0.04 -3.41,-0.02 -0.96,0.01 -1.92,0.02 -2.87,0.05 -0.01,-0.9 -0.04,-1.79 -0.1,-2.69 -0.08,-1.13 -0.38,-1.55 -1.54,-1.54 -0.81,-0 -1.65,0.08 -1.75,1 -0.02,0.16 -0.03,0.33 -0.04,0.49 -0.51,0.01 -1.3,-0.03 -1.59,0.34 -0.38,0.48 -0.2,1.74 -0.21,2.3 0,0.02 -0,0.04 -0,0.06 -0.23,-0.01 -0.51,-0.03 -0.69,0.05 -0.34,0.14 -0.21,0.73 -0.21,1.02 0,0.3 -0.11,0.78 0.27,0.86 0.19,0.04 0.39,0.05 0.59,0.04 0,0.71 0.04,1.41 0.2,2.03 0.2,0.78 0.94,0.77 1.67,0.79 0.01,0.1 0.01,0.2 0.02,0.3 0.09,0.98 0.63,1.05 1.5,1.06 0.55,0.01 1.43,0.2 1.75,-0.35 0.19,-0.33 0.15,-0.9 0.16,-1.27 0.03,-0.79 0.02,-1.58 0.01,-2.37 -0,-0.06 -0,-0.13 -0,-0.19 2.08,-0.03 4.17,0.08 6.24,-0.03 -0.01,0.7 -0.01,1.41 0,2.11 0.01,0.46 -0.07,1.03 0.08,1.47 0.25,0.74 1.13,0.58 1.78,0.57 0.74,-0.01 1.36,0.04 1.53,-0.82 0.04,-0.18 0.05,-0.36 0.06,-0.55 0.69,-0.01 1.45,-0.02 1.64,-0.76 0.16,-0.59 0.17,-1.27 0.15,-1.94 0.23,0.01 0.5,0 0.69,-0.09 0.26,-0.13 0.21,-0.49 0.19,-0.74z"/>
   <path class="fil0" d="M6.57 8.5c-0.2,0.48 -0.14,1.09 -0.08,1.59 0.03,0.27 0.45,0.27 0.42,0 -0.06,-0.47 -0.13,-1.03 0.06,-1.48 0.1,-0.25 -0.3,-0.36 -0.41,-0.11z"/>
   <path class="fil0" d="M7.16 7.87c-0.27,0 -0.27,0.42 0,0.42 0.27,0 0.27,-0.42 0,-0.42z"/>
   <path class="fil0" d="M16.36 8.31c-0.15,0.2 -0.16,0.51 -0.19,0.74 -0.03,0.3 -0.05,0.61 -0.03,0.91 0.02,0.27 0.44,0.27 0.42,0 -0.02,-0.25 -0.01,-0.51 0.01,-0.76 0.02,-0.21 0.02,-0.51 0.15,-0.68 0.16,-0.22 -0.2,-0.43 -0.36,-0.21z"/>
   <path class="fil0" d="M16.96 7.77c-0.27,0 -0.27,0.42 0,0.42 0.27,0 0.27,-0.42 0,-0.42z"/>
  </g>
  <circle class="fil1 str0" cx="12.23" cy="12.23" r="11.85"/>
 </g>
</svg>
