<?xml version="1.0" encoding="UTF-8"?>
<!DOCTYPE svg PUBLIC "-//W3C//DTD SVG 1.1//EN" "http://www.w3.org/Graphics/SVG/1.1/DTD/svg11.dtd">
<!-- Creator: CorelDRAW 2021 (64-Bit) -->
<svg xmlns="http://www.w3.org/2000/svg" xml:space="preserve" width="6.447mm" height="6.447mm" version="1.1" style="shape-rendering:geometricPrecision; text-rendering:geometricPrecision; image-rendering:optimizeQuality; fill-rule:evenodd; clip-rule:evenodd"
viewBox="0 0 24.36 24.36"
 xmlns:xlink="http://www.w3.org/1999/xlink"
 xmlns:xodm="http://www.corel.com/coreldraw/odm/2003">
 <defs>
  <style type="text/css">
   <![CDATA[
    .str0 {stroke:#FEFEFE;stroke-width:0.76;stroke-linecap:round;stroke-linejoin:round;stroke-miterlimit:22.9256}
    .fil1 {fill:none}
    .fil0 {fill:#FEFEFE;fill-rule:nonzero}
   ]]>
  </style>
 </defs>
 <g id="Capa_x0020_1">
  <metadata id="CorelCorpID_0Corel-Layer"/>
  <path class="fil0" d="M21.61 6.26c0.01,-0.32 -0.49,-0.32 -0.5,0 -0.05,2.04 -1.04,3.04 -3.01,3.21 -1.96,0.17 -5.32,0.63 -5.67,-1.98 -0.01,-0.05 -0.03,-0.08 -0.05,-0.11 0.04,-0.48 0.02,-0.96 0.02,-1.41 0,-0.32 -0.49,-0.32 -0.5,0 -0,0.86 0.12,2.07 -0.52,2.72 -0.77,0.78 -2.29,0.93 -3.32,0.96 -0.95,0.03 -2.22,0.09 -3.07,-0.35 -1.09,-0.56 -1.69,-1.85 -1.75,-3.02 -0.02,-0.32 -0.51,-0.32 -0.5,0 0.06,1.17 0.54,2.26 1.42,3.02 0.37,1.16 0.48,2.35 0.76,3.53 0.25,1.05 0.64,2.04 0.76,3.12 0.1,0.91 0.17,1.87 0.1,2.79 -0.07,0.89 -0.42,1.73 -0.53,2.62 -0.04,0.32 0.46,0.31 0.5,0 0.11,-0.93 0.48,-1.8 0.54,-2.73 0.05,-0.99 -0.01,-2.01 -0.14,-2.99 -0.11,-0.87 -0.4,-1.67 -0.63,-2.5 -0.3,-1.12 -0.42,-2.27 -0.71,-3.39 0.97,0.48 2.22,0.43 3.26,0.4 1.2,-0.04 2.78,-0.22 3.67,-1.1 0.19,-0.19 0.33,-0.42 0.43,-0.66 0.9,2.11 4.1,1.77 6.12,1.57 0.52,-0.05 0.97,-0.17 1.37,-0.33 -0.34,0.87 -0.44,1.78 -0.61,2.72 -0.2,1.06 -0.63,2.05 -0.78,3.12 -0.14,1 -0.2,2.04 -0.16,3.05 0.04,0.98 0.41,1.89 0.52,2.86 0.04,0.31 0.53,0.32 0.5,0 -0.1,-0.85 -0.42,-1.66 -0.51,-2.51 -0.1,-0.95 -0.01,-1.96 0.09,-2.9 0.11,-1 0.45,-1.91 0.69,-2.89 0.32,-1.3 0.32,-2.64 0.99,-3.84 0.01,-0.02 0.01,-0.04 0.02,-0.06 0.78,-0.62 1.18,-1.6 1.22,-2.92zm-5.18 5.83c-0.43,0.76 -3.66,0.62 -4.04,-0.12 -0.01,-0.03 -0.03,-0.05 -0.05,-0.06 0.1,-0.46 0.04,-1.02 0.01,-1.59 -0.02,-0.32 -0.51,-0.32 -0.5,0 0.06,1.08 0.29,2.07 -1.15,2.2 -0.86,0.08 -2.23,0.3 -2.89,-0.36 -0.22,-0.23 -0.58,0.12 -0.35,0.35 0.86,0.87 2.59,0.67 3.69,0.45 0.47,-0.09 0.77,-0.28 0.95,-0.53 0.52,0.59 1.61,0.58 2.31,0.59 0.76,0.01 1.99,0.1 2.43,-0.68 0.16,-0.28 -0.27,-0.53 -0.43,-0.25zm-4.65 3.43c-0.19,0.3 -0.67,0.42 -0.99,0.44 -0.82,0.05 -2.17,0.17 -2.22,-0.97 -0.01,-0.32 -0.51,-0.32 -0.5,0 0.02,0.53 0.11,1.01 0.63,1.25 0.64,0.3 1.41,0.26 2.09,0.22 0.5,-0.03 1.07,-0.01 1.35,-0.5 0,-0 0,-0.01 0.01,-0.01 0.08,0.11 0.19,0.21 0.34,0.28 0.57,0.28 1.33,0.24 1.95,0.26 1,0.03 1.71,-0.39 1.86,-1.45 0.05,-0.31 -0.43,-0.45 -0.48,-0.13 -0.12,0.85 -0.63,1.1 -1.38,1.08 -0.8,-0.02 -1.77,0.11 -2.08,-0.82 -0,-0 -0,-0 -0,-0 0.03,-0.33 0.01,-0.67 -0.01,-0.95 -0.02,-0.32 -0.51,-0.32 -0.5,0 0.01,0.25 0.02,0.5 0,0.75 -0.01,0.14 0,0.42 -0.07,0.54zm7.13 -6.79c0.32,0 0.32,-0.5 0,-0.5 -0.32,0 -0.32,0.5 0,0.5zm-13.41 0c0.32,0 0.32,-0.5 0,-0.5 -0.32,0 -0.32,0.5 0,0.5zm10.32 9.6c-0.01,0.49 -0.01,0.81 -0.53,0.95 -0.27,0.07 -0.53,0.06 -0.81,0.05 -0.74,-0.03 -1.86,0.15 -2.04,-0.82 0.04,-0.36 -0.01,-0.75 -0.02,-1.05 -0.01,-0.32 -0.51,-0.32 -0.5,0 0.01,0.44 0.07,0.83 -0.12,1.23 -0.18,0.37 -0.49,0.43 -0.88,0.5 -0.42,0.07 -0.88,0.07 -1.3,0.05 -0.71,-0.03 -0.83,-0.36 -0.93,-0.97 -0.05,-0.31 -0.53,-0.18 -0.48,0.13 0.08,0.46 0.15,0.96 0.61,1.19 0.57,0.29 1.49,0.19 2.1,0.1 0.4,-0.06 0.97,-0.16 1.26,-0.48 0.48,0.67 1.55,0.6 2.37,0.63 0.4,0.02 0.95,-0.01 1.31,-0.2 0.47,-0.26 0.44,-0.83 0.45,-1.3 0,-0.32 -0.49,-0.32 -0.5,0zm-8.4 -14.99c1.28,-0 2.37,-0.14 3.41,0.7 0.25,0.2 0.6,-0.15 0.35,-0.35 -1.17,-0.95 -2.3,-0.85 -3.76,-0.85 -0.32,0 -0.32,0.5 0,0.5zm6.05 0.7c0.85,-0.91 2.32,-0.74 3.47,-0.78 0.32,-0.01 0.32,-0.51 0,-0.5 -1.31,0.05 -2.86,-0.12 -3.82,0.92 -0.22,0.23 0.13,0.59 0.35,0.35z"/>
  <circle class="fil1 str0" cx="12.18" cy="12.18" r="11.8"/>
 </g>
</svg>
