<?xml version="1.0" encoding="UTF-8"?>
<!DOCTYPE svg PUBLIC "-//W3C//DTD SVG 1.1//EN" "http://www.w3.org/Graphics/SVG/1.1/DTD/svg11.dtd">
<!-- Creator: CorelDRAW 2021 (64-Bit) -->
<svg xmlns="http://www.w3.org/2000/svg" xml:space="preserve" width="6.447mm" height="6.447mm" version="1.1" style="shape-rendering:geometricPrecision; text-rendering:geometricPrecision; image-rendering:optimizeQuality; fill-rule:evenodd; clip-rule:evenodd"
viewBox="0 0 14.65 14.65"
 xmlns:xlink="http://www.w3.org/1999/xlink"
 xmlns:xodm="http://www.corel.com/coreldraw/odm/2003">
 <defs>
  <style type="text/css">
   <![CDATA[
    .str0 {stroke:#FEFEFE;stroke-width:0.45;stroke-linecap:round;stroke-linejoin:round;stroke-miterlimit:22.9256}
    .fil1 {fill:none}
    .fil0 {fill:#FEFEFE;fill-rule:nonzero}
   ]]>
  </style>
 </defs>
 <g id="Capa_x0020_1">
  <metadata id="CorelCorpID_0Corel-Layer"/>
  <path class="fil0" d="M10.47 9.53c-0.2,0.27 -0.22,0.32 -0.18,0.71 0.04,0.48 0.48,2.7 -0.52,2.51 -0.95,-0.18 -0.14,-2.19 -0.12,-2.8 0.01,-0.22 -0.01,-0.25 -0.09,-0.41 -0.08,-0.16 -0.37,-0.42 -0.15,-0.64 0.1,-0.1 0.6,-0.03 0.74,-0.02 0.54,0.07 0.6,0.25 0.32,0.65zm-0.55 -3.78c-0.38,1.43 -2.21,1.86 -3.49,1.59 -1.49,-0.32 -1.95,-2.15 -1.59,-3.47 0.26,-0.96 1,-1.64 1.88,-1.85 -0.35,0.18 -0.66,0.44 -0.89,0.78 -0.85,1.25 -0.72,3.53 1.02,3.83 0.78,0.13 1.7,0.02 2.28,-0.57 0.58,-0.58 0.8,-1.54 0.7,-2.34 -0.01,-0.09 -0.03,-0.17 -0.05,-0.26 0.3,0.69 0.34,1.5 0.13,2.29zm-2.35 -3.76c0.27,0.03 0.54,0.11 0.8,0.25 0.83,0.42 1.3,1.08 1.23,2.03 -0.06,0.86 -0.46,1.76 -1.34,2.03 -0.74,0.23 -1.92,0.2 -2.38,-0.54 -0.38,-0.62 -0.35,-1.59 -0.11,-2.25 0.28,-0.79 0.97,-1.41 1.8,-1.53zm-2.29 6.89c0.19,0.15 -0.06,0.45 -0.12,0.58 -0.13,0.25 -0.17,0.24 -0.12,0.56 0.09,0.56 0.26,1.09 0.34,1.66 0.03,0.26 0.16,0.63 -0.01,0.88 -0.17,0.24 -0.47,0.26 -0.69,0.14 -0.44,-0.24 -0.37,-1.14 -0.32,-1.59 0.04,-0.39 0.17,-0.89 0.04,-1.28 -0.07,-0.22 -0.1,-0.12 -0.25,-0.29 -0.45,-0.53 0.18,-0.63 0.6,-0.65 0.13,-0 0.44,-0.07 0.54,0.01zm4.96 -0.24c0.2,-1.14 0.39,-2.3 0.4,-3.46 0.01,-0.89 -0.05,-1.88 -0.65,-2.59 -0.47,-0.55 -1.15,-0.83 -1.84,-0.86 -1.06,-0.31 -1.89,0 -2.74,0.65 -0.77,0.59 -1.16,1.33 -1.24,2.29 -0.11,1.31 0.06,2.67 0.28,3.97 -0.29,0.02 -0.63,0.08 -0.72,0.31 -0.05,0.13 -0.01,0.46 0.04,0.57 0.08,0.19 0.26,0.17 0.35,0.32 0.14,0.22 0.01,0.84 -0.02,1.06 -0.04,0.34 -0.06,0.66 -0.02,1 0.05,0.41 0.1,1.01 0.58,1.12 1.45,0.35 0.97,-1.73 0.78,-2.44 -0.04,-0.14 -0.1,-0.29 -0.12,-0.43 -0.09,-0.54 -0.01,-0.37 0.15,-0.68 0.09,-0.17 0.11,-0.27 0.08,-0.49 -0.07,-0.48 -0.4,-0.37 -0.82,-0.36 -0.01,0 -0.02,0 -0.03,0 -0.14,-0.81 -0.23,-1.62 -0.27,-2.43 -0.04,-0.73 -0.09,-1.53 0.12,-2.24 0.01,-0.02 0.02,-0.04 0.02,-0.06 -0.2,0.77 -0.14,1.62 0.19,2.35 0.67,1.49 2.4,1.79 3.81,1.19 0.67,-0.29 1.3,-0.69 1.54,-1.41 0.26,-0.79 0.3,-1.85 -0.03,-2.62 -0.16,-0.37 -0.4,-0.69 -0.7,-0.96 0.29,0.19 0.52,0.45 0.68,0.76 0.38,0.8 0.34,1.75 0.29,2.61 -0.06,0.94 -0.21,1.88 -0.38,2.81 -0,0 0,0 0,0 -0.35,-0.03 -0.74,-0.05 -0.85,0.32 -0.05,0.16 -0.08,0.41 -0.01,0.56 0.13,0.27 0.25,0.14 0.26,0.47 0.02,0.71 -0.99,2.94 0.33,3.06 1.28,0.12 0.98,-1.68 0.87,-2.48 -0.03,-0.23 -0.11,-0.55 0.02,-0.77 0.05,-0.08 0.17,-0.12 0.22,-0.21 0.09,-0.14 0.11,-0.35 0.1,-0.51 -0.02,-0.41 -0.35,-0.38 -0.69,-0.41z"/>
  <circle class="fil1 str0" cx="7.32" cy="7.32" r="7.1"/>
 </g>
</svg>
