<?xml version="1.0" encoding="UTF-8"?>
<!DOCTYPE svg PUBLIC "-//W3C//DTD SVG 1.1//EN" "http://www.w3.org/Graphics/SVG/1.1/DTD/svg11.dtd">
<!-- Creator: CorelDRAW 2021 (64-Bit) -->
<svg xmlns="http://www.w3.org/2000/svg" xml:space="preserve" width="6.447mm" height="6.447mm" version="1.1" style="shape-rendering:geometricPrecision; text-rendering:geometricPrecision; image-rendering:optimizeQuality; fill-rule:evenodd; clip-rule:evenodd"
viewBox="0 0 20.6 20.6"
 xmlns:xlink="http://www.w3.org/1999/xlink"
 xmlns:xodm="http://www.corel.com/coreldraw/odm/2003">
 <defs>
  <style type="text/css">
   <![CDATA[
    .str0 {stroke:#FEFEFE;stroke-width:0.64;stroke-linecap:round;stroke-linejoin:round;stroke-miterlimit:22.9256}
    .fil1 {fill:none}
    .fil0 {fill:#FEFEFE;fill-rule:nonzero}
   ]]>
  </style>
 </defs>
 <g id="Capa_x0020_1">
  <metadata id="CorelCorpID_0Corel-Layer"/>
  <path class="fil0" d="M16.05 9.07c-0.02,1.25 -0.03,2.5 -0.03,3.75 -0,0.58 -0,1.15 0,1.73 0,0.26 0.04,0.62 -0.06,0.86 -0.25,0.6 -0.95,0.57 -1.46,0.6 -1.19,0.07 -2.39,0.02 -3.59,0.01 -1.2,-0.01 -2.4,0.05 -3.6,0.02 -0.56,-0.01 -1.17,-0.01 -1.72,-0.09 -0.75,-0.11 -0.96,-0.62 -1.05,-1.27 -0.19,-1.28 0.03,-2.62 0.01,-3.91 -0.01,-1.22 -0.01,-2.45 0.05,-3.67 0.05,-1.02 0.56,-1.54 1.61,-1.59 0.67,-0.03 1.34,-0 2.01,0.01 -0.12,0.26 -0.2,0.54 -0.22,0.83 -0.06,1.28 1.06,2.48 2.36,2.47 1.3,-0.01 2.29,-1.13 2.27,-2.38 -0.01,-0.38 -0.08,-0.7 -0.2,-0.97 0.39,-0 0.78,-0.02 1.17,-0.01 0.51,0.01 1.2,-0.08 1.64,0.19 1.09,0.67 0.84,2.33 0.82,3.43zm-5.68 -4.56c1.05,0.12 1.88,0.66 1.93,1.79 0.05,1.15 -0.76,2.17 -1.96,2.16 -1.06,-0.01 -2.02,-0.92 -2.02,-2 -0,-1.1 0.98,-1.99 2.05,-1.95zm5.48 1.24c-0.86,-0.98 -2.43,-0.6 -3.6,-0.61 -0.38,-0.56 -1.04,-0.86 -1.88,-0.95 -0.78,-0.03 -1.53,0.38 -1.97,1 -0.82,-0.01 -1.66,-0.07 -2.48,-0 -0.45,0.04 -0.89,0.13 -1.19,0.48 -0.31,0.36 -0.43,0.88 -0.46,1.33 -0.05,0.7 -0.04,1.42 -0.07,2.13 -0.03,0.79 0.03,1.57 0.01,2.36 -0.02,0.92 -0.09,1.84 -0.04,2.76 0.04,0.76 0.14,1.79 1.02,1.98 1.47,0.32 3.16,0.13 4.66,0.11 1.59,-0.02 3.19,0.09 4.78,-0.02 1.19,-0.08 1.7,-0.39 1.71,-1.65 0.01,-1.66 -0.01,-3.32 0.02,-4.98 0.02,-1.2 0.35,-2.95 -0.51,-3.93zm-5.55 0.59c0.01,0.01 0.03,0.01 0.04,0.02 0,0 0,0.01 0.01,0.01 0.1,0.07 -0.07,0.25 -0.16,0.08 -0.04,-0.08 0.04,-0.11 0.11,-0.11zm-0.28 0.39c0.19,0.15 0.43,0.16 0.58,-0.05 0.12,-0.16 0.11,-0.35 0,-0.49 -0,-0.02 -0.01,-0.03 -0.02,-0.05 0.09,-0.24 0.17,-0.47 0.25,-0.71 0.07,-0.19 -0.24,-0.28 -0.31,-0.08 -0.08,0.23 -0.16,0.45 -0.24,0.68 -0.36,0.01 -0.64,0.43 -0.27,0.71zm4.61 7.64c-0.22,0.55 -0.7,0.5 -1.23,0.52 -1.31,0.05 -2.62,0.13 -3.93,0.14 -0.64,0 -1.27,-0.07 -1.91,-0.11 -0.58,-0.04 -1.37,0.15 -1.6,-0.54 -0.17,-0.51 -0.09,-1.17 -0.08,-1.7 0.01,-0.61 -0,-1.22 -0.02,-1.83 -0.02,-0.61 -0.3,-1.69 0.42,-1.99 0.38,-0.16 1.44,-0.14 1.75,0.14 0.71,0.62 1.61,1.04 2.58,0.95 0.45,-0.04 0.92,-0.19 1.32,-0.4 0.41,-0.22 0.72,-0.7 1.16,-0.84 0.19,-0.06 0.6,-0.05 0.79,-0.03 0.4,-0.08 0.67,0.13 0.81,0.63 0.01,0.15 0.02,0.29 0.02,0.44 0.01,0.64 -0.04,1.27 -0.05,1.9 -0.01,0.61 0.04,1.21 0.06,1.82 0.01,0.3 0.05,0.62 -0.07,0.91zm0.36 -3.75c0.02,-0.51 0.12,-1.21 -0.05,-1.7 -0.12,-0.33 -0.38,-0.53 -0.72,-0.58 -0.38,-0.06 -1.16,-0.08 -1.53,0.1 -0.18,0.09 -0.31,0.34 -0.45,0.47 -0.32,0.29 -0.73,0.48 -1.14,0.6 -1.05,0.29 -2.05,-0.06 -2.85,-0.75 -0.46,-0.41 -1.74,-0.42 -2.27,-0.16 -0.71,0.35 -0.47,1.33 -0.45,1.96 0.03,1.19 -0.12,2.5 0.08,3.68 0.1,0.54 0.35,0.84 0.9,0.94 0.7,0.13 1.51,0.11 2.23,0.14 0.74,0.03 1.47,0 2.21,-0.04 0.68,-0.04 1.35,-0.08 2.03,-0.09 0.54,-0.01 1.06,0.12 1.53,-0.19 0.78,-0.5 0.51,-1.51 0.48,-2.31 -0.03,-0.7 -0.01,-1.39 0.01,-2.09zm-6.03 -4.3c0.03,-0.38 0.23,-0.79 0.57,-0.98 0.18,-0.1 0.02,-0.38 -0.16,-0.28 -0.45,0.25 -0.69,0.76 -0.73,1.25 -0.02,0.2 0.3,0.2 0.32,0zm-0.19 0.33c-0.21,0 -0.21,0.32 0,0.32 0.21,0 0.21,-0.32 0,-0.32z"/>
  <circle class="fil1 str0" cx="10.3" cy="10.3" r="9.98"/>
 </g>
</svg>
