<?xml version="1.0" encoding="UTF-8"?>
<!DOCTYPE svg PUBLIC "-//W3C//DTD SVG 1.1//EN" "http://www.w3.org/Graphics/SVG/1.1/DTD/svg11.dtd">
<!-- Creator: CorelDRAW 2021 (64-Bit) -->
<svg xmlns="http://www.w3.org/2000/svg" xml:space="preserve" width="6.447mm" height="6.447mm" version="1.1" style="shape-rendering:geometricPrecision; text-rendering:geometricPrecision; image-rendering:optimizeQuality; fill-rule:evenodd; clip-rule:evenodd"
viewBox="0 0 15.41 15.41"
 xmlns:xlink="http://www.w3.org/1999/xlink"
 xmlns:xodm="http://www.corel.com/coreldraw/odm/2003">
 <defs>
  <style type="text/css">
   <![CDATA[
    .str0 {stroke:#FEFEFE;stroke-width:0.48;stroke-linecap:round;stroke-linejoin:round;stroke-miterlimit:22.9256}
    .fil1 {fill:none}
    .fil0 {fill:#FEFEFE;fill-rule:nonzero}
   ]]>
  </style>
 </defs>
 <g id="Capa_x0020_1">
  <metadata id="CorelCorpID_0Corel-Layer"/>
  <path class="fil0" d="M3.93 8.2c-0.17,0 -0.17,0.26 0,0.26 0.17,0 0.17,-0.26 0,-0.26zm-0.28 -0.23c-0.33,-0.13 -0.83,-0.49 -0.85,-0.88 -0.01,-0.17 -0.27,-0.17 -0.26,0 0.02,0.53 0.6,0.95 1.04,1.13 0.16,0.06 0.22,-0.19 0.07,-0.25zm9.2 3.63c-0.41,0.33 -1,0.31 -1.5,0.32 -0.78,0.02 -1.78,0.16 -2.52,-0.1 -0.86,-0.3 -1.43,-1.09 -2.14,-1.62 -0.72,-0.54 -1.58,-0.86 -2.39,-1.25 -0.45,-0.21 -0.89,-0.45 -1.29,-0.75 -0.22,-0.17 -0.52,-0.39 -0.65,-0.64 -0.15,-0.29 -0.1,-0.97 0.27,-1.1 1.07,0.55 2.18,1.11 3.15,1.82 0.99,0.72 1.72,1.71 2.76,2.39 0.76,0.5 1.53,0.72 2.44,0.77 0.67,0.03 1.51,0.06 2.15,-0.25 -0.05,0.15 -0.14,0.29 -0.28,0.41zm-5.21 -1.95c-0.67,-0.6 -1.23,-1.28 -1.99,-1.78 -0.01,-0.01 -0.02,-0.01 -0.03,-0.02 0.52,-0.09 1.01,-0.06 1.46,0.26 0.48,0.33 0.76,0.98 0.56,1.54zm-3.66 -5.13c0.4,1.72 2,2.43 3.62,1.76 0.52,0.88 1.09,1.69 1.76,2.47 0.51,0.6 1.38,1.02 2.08,0.54 0.04,0.02 0.07,0.04 0.11,0.05 0.16,0.08 0.36,0.16 0.56,0.24 -0.21,0.34 -0.52,0.52 -0.93,0.5 -0.26,-0.01 -0.5,-0.09 -0.76,-0.06 -0.43,0.04 -0.97,0.32 -1.13,0.75 -0.5,-0.24 -0.96,-0.56 -1.41,-0.92 -0.02,-0.01 -0.03,-0.03 -0.05,-0.04 0.02,-0.01 0.04,-0.03 0.05,-0.06 0.25,-0.62 -0.03,-1.35 -0.52,-1.76 -0.58,-0.49 -1.28,-0.52 -1.99,-0.36 -0.02,0.01 -0.04,0.01 -0.05,0.03 -0.82,-0.52 -1.69,-0.98 -2.55,-1.43 -0.16,-0.76 0.62,-1.29 1.21,-1.71zm0.46 -1.25c0.24,0.12 0.24,0.44 0.03,0.59 -0.01,0.01 -0.01,0.01 -0.02,0.02 0.01,-0.11 -0,-0.22 -0.05,-0.32 -0.03,-0.07 -0.1,-0.13 -0.13,-0.19 -0.06,-0.14 0.06,-0.15 0.17,-0.1zm0.43 1.56c0.09,0.24 0.27,0.47 0.46,0.64 0.45,0.38 1.04,0.63 1.61,0.43 0.09,-0.03 0.21,-0.1 0.34,-0.16 0.06,0.11 0.13,0.22 0.19,0.32 -0.63,0.25 -1.2,0.33 -1.86,0.1 -0.81,-0.29 -1.24,-0.98 -1.4,-1.8 0.03,-0.03 0.07,-0.05 0.1,-0.08 0.36,-0.31 0.47,0.3 0.56,0.56zm2.54 0.06c0.11,-0.03 0.34,-0.06 0.44,0 0.07,0.04 0.13,0.2 0.17,0.33 -0.24,0.04 -0.49,0.15 -0.66,0.22 -0.11,0.05 -0.23,0.1 -0.35,0.15 0.02,-0.3 0.07,-0.6 0.4,-0.7zm1.23 1.07c-0.18,0 -0.36,-0 -0.54,-0.01 -0.17,-0.01 -0.17,0.25 0,0.26 0.24,0.02 0.47,0.01 0.7,0.01 0.09,0.15 0.17,0.31 0.24,0.44 -0.17,0 -0.34,-0 -0.51,-0.01 -0.17,-0.01 -0.17,0.25 0,0.26 0.23,0.01 0.45,0.01 0.68,0.01 0.1,0.15 0.2,0.3 0.31,0.44 -0.15,-0 -0.29,-0 -0.44,-0.01 -0.17,-0.01 -0.17,0.25 0,0.26 0.21,0.01 0.43,0.01 0.64,0.01 0.12,0.15 0.24,0.29 0.36,0.44 -0.14,-0 -0.28,-0 -0.43,-0.01 -0.17,-0.01 -0.17,0.25 0,0.26 0.22,0.01 0.43,0.01 0.64,0.01 0.13,0.15 0.26,0.29 0.39,0.43 -0.1,-0 -0.2,-0 -0.3,-0.01 -0.17,-0.01 -0.17,0.25 0,0.26 0.19,0.01 0.38,0.01 0.58,0.01 0.07,0.06 0.15,0.11 0.23,0.15 -0.85,0.5 -1.63,-0.58 -2.11,-1.16 -0.61,-0.73 -1.1,-1.54 -1.56,-2.38 0.17,-0.08 0.34,-0.13 0.48,-0.12 0.27,0.03 0.48,0.22 0.64,0.46zm4.55 4.91c-0.7,0.43 -1.79,0.36 -2.59,0.28 -0.38,-0.04 -0.73,-0.13 -1.07,-0.27 0.17,-0.51 0.89,-0.63 1.33,-0.57 0.21,0.03 0.43,0.08 0.65,0.04 0.36,-0.06 0.66,-0.35 0.84,-0.66 0.13,0.07 0.26,0.14 0.36,0.22 0.27,0.23 0.46,0.6 0.48,0.95zm-0.05 -0.92c-0.3,-0.38 -0.86,-0.52 -1.27,-0.73 -0.16,-0.08 -0.32,-0.16 -0.47,-0.24 0.15,-0.03 0.15,-0.27 -0.02,-0.26 -0.11,0.01 -0.22,0.01 -0.33,0.01 -0.15,-0.13 -0.28,-0.29 -0.4,-0.45 0.16,-0.02 0.16,-0.27 -0,-0.26 -0.07,0.01 -0.14,0.01 -0.21,0.01 -0.13,-0.15 -0.26,-0.29 -0.39,-0.44 0.01,-0 0.01,-0 0.02,-0 0.17,-0.01 0.17,-0.27 0,-0.26 -0.07,0.01 -0.15,0.01 -0.22,0.01 -0.12,-0.14 -0.23,-0.29 -0.34,-0.44 0,-0 0.01,0 0.01,-0 0.17,-0.01 0.17,-0.27 0,-0.26 -0.06,0 -0.12,0 -0.18,0.01 -0.06,-0.09 -0.12,-0.17 -0.17,-0.26 -0.03,-0.05 -0.06,-0.11 -0.1,-0.18 0.01,-0 0.01,-0 0.02,-0 0.17,-0.01 0.17,-0.27 0,-0.26 -0.05,0 -0.1,0 -0.14,0.01 -0.14,-0.29 -0.31,-0.6 -0.55,-0.7 -0.03,-0.01 -0.07,-0.02 -0.1,-0.03 -0.04,-0.13 -0.09,-0.26 -0.14,-0.39 -0.03,-0.06 -0.04,-0.12 -0.1,-0.16 -0.16,-0.11 -0.5,-0.08 -0.68,-0.04 -0.52,0.11 -0.61,0.58 -0.64,1.05l0 0c-0.14,0.04 -0.29,0.06 -0.44,0.02 -0.38,-0.08 -0.87,-0.42 -1.08,-0.75 -0.19,-0.29 -0.07,-0.76 -0.37,-0.97 -0.03,-0.02 -0.07,-0.04 -0.1,-0.05 0.25,-0.35 0.11,-0.91 -0.39,-0.96 -0.2,-0.02 -0.39,0.11 -0.38,0.32 0,0.13 0.1,0.22 0.16,0.32 0.1,0.17 0.06,0.38 -0.08,0.52 -0,0 -0,0 -0,0 -0.63,0.52 -1.69,1.13 -1.55,2.09 -0.59,0.25 -0.57,1.21 -0.21,1.65 0.64,0.8 1.68,1.21 2.59,1.62 0.46,0.21 0.93,0.42 1.36,0.7 0.56,0.36 1,0.85 1.51,1.26 0.8,0.64 1.46,0.71 2.45,0.72 0.57,0.01 1.15,0.01 1.72,-0.03 0.4,-0.03 0.75,-0.04 1.06,-0.32 0.55,-0.49 0.61,-1.29 0.14,-1.88z"/>
  <circle class="fil1 str0" cx="7.7" cy="7.7" r="7.46"/>
 </g>
</svg>
