<?xml version="1.0" encoding="UTF-8"?>
<!DOCTYPE svg PUBLIC "-//W3C//DTD SVG 1.1//EN" "http://www.w3.org/Graphics/SVG/1.1/DTD/svg11.dtd">
<!-- Creator: CorelDRAW 2021 (64-Bit) -->
<svg xmlns="http://www.w3.org/2000/svg" xml:space="preserve" width="6.447mm" height="6.447mm" version="1.1" style="shape-rendering:geometricPrecision; text-rendering:geometricPrecision; image-rendering:optimizeQuality; fill-rule:evenodd; clip-rule:evenodd"
viewBox="0 0 22.25 22.25"
 xmlns:xlink="http://www.w3.org/1999/xlink"
 xmlns:xodm="http://www.corel.com/coreldraw/odm/2003">
 <defs>
  <style type="text/css">
   <![CDATA[
    .str0 {stroke:#FEFEFE;stroke-width:0.69;stroke-linecap:round;stroke-linejoin:round;stroke-miterlimit:22.9256}
    .fil1 {fill:none}
    .fil0 {fill:#FEFEFE;fill-rule:nonzero}
   ]]>
  </style>
 </defs>
 <g id="Capa_x0020_1">
  <metadata id="CorelCorpID_0Corel-Layer"/>
  <path class="fil0" d="M15.73 9.76c-0.18,0.13 -0.45,0.14 -0.61,-0.09 -0.01,-0.01 -0.02,-0.01 -0.02,-0.02 0,-0.17 0,-0.34 0.01,-0.52 0,-0.38 0.07,-0.89 0.08,-1.4 0.01,-0.01 0.02,-0.01 0.02,-0.02 0.13,-0.18 0.47,-0.16 0.58,0.01 0.12,0.18 0.07,0.73 0.07,0.95 0.01,0.24 0.01,0.48 0.01,0.72 -0,0.2 0.03,0.25 -0.13,0.37zm-1.04 4.12c0.01,0.25 0.05,0.49 0.04,0.74 -0,0.58 -0.22,1.25 -0.84,1.47 -0.5,0.18 -1.48,-0.06 -2,-0.05 -0.72,0.01 -1.45,0.04 -2.17,0.04 -0.58,0 -2.07,0.18 -2.55,-0.14 -0.74,-0.5 -0.67,-1.65 -0.72,-2.43 -0.04,-0.66 -0.07,-1.32 -0.08,-1.98 -0.02,-1.3 0,-2.62 0.15,-3.92 0.08,-0.68 0.29,-1.26 1.05,-1.48 0.23,-0.07 0.6,0.01 0.84,0.01 0.73,-0.01 1.47,-0.03 2.2,-0 0.67,-0.01 1.33,0.01 1.99,-0.03 0.71,-0.04 1.57,-0.12 1.93,0.58 0.31,0.59 0.19,1.34 0.19,2 -0,0.61 -0.01,1.21 -0.01,1.82 -0.01,1.12 -0.08,2.25 -0.02,3.37zm-1.46 4.05c-0,0.54 0.11,1.01 -0.48,1.18 -0.59,0.17 -1.36,0.03 -1.97,0.03 -0.65,0 -1.31,0.02 -1.96,0.02 -0.14,0 -0.4,0.05 -0.54,-0.01 -0.33,-0.15 -0.35,-0.71 -0.39,-0.99 -0.08,-0.55 -0.02,-1.16 -0.01,-1.72 0.27,0.01 0.53,0 0.75,0.01 0.9,0.03 1.81,-0 2.71,-0.02 0.63,-0.01 1.25,0.03 1.88,0.04 0.01,0.49 0.01,0.97 0.01,1.46zm-5.14 -14.75c0.22,-0.13 0.78,-0.04 1.03,-0.05 0.39,-0.01 0.77,-0 1.16,-0 0.73,0.01 1.45,-0.02 2.18,-0.02 0.64,0 0.75,0.5 0.75,1.07 0,0.51 0.01,1.02 0,1.53 -0.04,-0 -0.08,-0 -0.12,-0 -0.83,-0.01 -1.66,0.03 -2.49,0.05 -0.73,-0.03 -1.47,-0.01 -2.2,0 -0.17,0 -0.34,-0.01 -0.52,-0.02 -0.03,-0.58 -0.26,-2.28 0.21,-2.56zm8.15 5.59c-0.01,-0.4 0.1,-1.28 -0.35,-1.5 -0.23,-0.11 -0.5,-0.09 -0.72,0.02 -0.04,-0.51 -0.17,-0.97 -0.55,-1.23 -0.29,-0.2 -0.66,-0.29 -1.02,-0.32 0.02,-0.7 0.18,-1.76 0.01,-2.43 -0.05,-0.21 -0.06,-0.34 -0.26,-0.48 -0.3,-0.21 -0.97,-0.1 -1.3,-0.1 -0.59,0 -1.17,0.02 -1.76,0.02 -0.56,-0 -1.12,-0.01 -1.68,0.02 -0.27,0.01 -0.75,-0.05 -0.98,0.14 -0.2,0.16 -0.14,0.38 -0.14,0.62 0,0.74 -0,1.47 0.01,2.21 -0.19,0 -0.37,0.03 -0.53,0.09 -1,0.39 -0.87,2.06 -0.93,2.9 -0.1,1.54 -0.08,3.09 0.02,4.63 0.05,0.81 -0.14,2.4 0.7,2.86 0.21,0.12 0.48,0.17 0.75,0.2 -0.02,0.77 -0.15,1.72 -0,2.47 0.05,0.26 0.1,0.44 0.34,0.57 0.35,0.19 0.96,0.09 1.34,0.09 0.53,-0 1.06,-0.02 1.6,-0.02 0.49,0 0.98,0.01 1.46,-0.01 0.34,-0.01 0.93,0.07 1.21,-0.13 0.22,-0.16 0.16,-0.39 0.16,-0.64 0,-0.76 0,-1.51 -0.01,-2.27 0.01,0 0.02,0 0.04,0 0.37,-0 0.74,-0.03 1.02,-0.3 0.75,-0.7 0.39,-2.11 0.4,-3 0.01,-1.02 0.02,-2.04 0.03,-3.05 0.25,0.14 0.55,0.16 0.83,0.05 0.5,-0.19 0.33,-1 0.32,-1.41zm-2.91 1.24c-0.11,0.22 -0.44,0.42 -0.68,0.35 -0.25,-0.07 -0.43,-0.4 -0.38,-0.64 0.06,-0.3 0.38,-0.4 0.65,-0.36 0.01,0 0.01,-0 0.02,-0 0.01,0 0.02,0.01 0.03,0.01 0.28,0.02 0.46,0.41 0.35,0.64zm-1.51 2.52c-0.11,0.22 -0.44,0.42 -0.68,0.35 -0.25,-0.07 -0.43,-0.4 -0.38,-0.64 0.06,-0.3 0.38,-0.4 0.65,-0.36 0.01,0 0.01,-0 0.02,-0 0.01,0 0.02,0.01 0.03,0.01 0.28,0.02 0.46,0.41 0.35,0.64zm-2.19 -2.17c-0.25,-0.07 -0.43,-0.4 -0.38,-0.64 0.06,-0.3 0.38,-0.4 0.65,-0.36 0.01,0 0.01,-0 0.02,-0 0.01,0 0.02,0.01 0.03,0.01 0.28,0.02 0.47,0.41 0.35,0.64 -0.11,0.22 -0.44,0.42 -0.68,0.35zm-0.83 2.17c-0.11,0.22 -0.44,0.42 -0.68,0.35 -0.25,-0.07 -0.43,-0.4 -0.38,-0.64 0.06,-0.3 0.38,-0.4 0.65,-0.36 0.01,0 0.01,-0 0.02,-0 0.01,0 0.02,0.01 0.03,0.01 0.28,0.02 0.46,0.41 0.35,0.64zm4.25 -3.53c-0.01,-0 -0.01,-0.01 -0.02,-0.01 -0.01,-0 -0.02,-0 -0.03,-0 -0.01,-0 -0.02,-0 -0.02,-0.01 -0.01,-0 -0.01,0 -0.02,0 -0.48,-0.04 -0.96,0.15 -1.06,0.67 -0.06,0.33 0.09,0.68 0.34,0.9 -0.2,0.33 -0.46,0.63 -0.63,0.98 -0.02,-0.01 -0.04,-0.01 -0.06,-0.01 -0.01,-0 -0.01,-0.01 -0.02,-0.01 -0.01,-0 -0.02,-0 -0.03,-0 -0.01,-0 -0.02,-0 -0.02,-0.01 -0.01,-0 -0.01,0 -0.02,0 -0.13,-0.01 -0.26,-0 -0.39,0.02 -0.22,-0.34 -0.46,-0.67 -0.71,-0.99 0.18,-0.14 0.32,-0.33 0.37,-0.53 0.1,-0.43 -0.25,-0.92 -0.68,-1 -0.01,-0 -0.01,-0.01 -0.02,-0.01 -0.01,-0 -0.02,-0 -0.03,-0 -0.01,-0 -0.02,-0 -0.02,-0.01 -0.01,-0 -0.01,0 -0.02,0 -0.48,-0.04 -0.96,0.15 -1.06,0.67 -0.06,0.34 0.1,0.72 0.38,0.93 -0.25,0.3 -0.5,0.6 -0.69,0.94 -0.02,-0 -0.03,-0.01 -0.05,-0.01 -0.01,-0 -0.01,-0.01 -0.02,-0.01 -0.01,-0 -0.02,-0 -0.03,-0 -0.01,-0 -0.02,-0 -0.02,-0.01 -0.01,-0 -0.01,0 -0.02,0 -0.48,-0.04 -0.96,0.15 -1.06,0.67 -0.09,0.47 0.25,1.01 0.73,1.09 0.46,0.08 1,-0.29 1.1,-0.75 0.07,-0.29 -0.07,-0.61 -0.3,-0.81 0.19,-0.34 0.46,-0.64 0.71,-0.95 0,-0 0,-0.01 0.01,-0.01 0.14,0.02 0.28,0 0.42,-0.04 0,0.03 0.02,0.07 0.04,0.1 0.22,0.28 0.43,0.57 0.63,0.88 -0.16,0.11 -0.27,0.27 -0.32,0.5 -0.09,0.47 0.25,1.01 0.73,1.09 0.46,0.08 1,-0.29 1.1,-0.75 0.07,-0.29 -0.07,-0.6 -0.29,-0.8 0.18,-0.35 0.44,-0.65 0.64,-0.99 0.02,0 0.04,0.01 0.05,0.02 0.46,0.08 1,-0.29 1.1,-0.75 0.1,-0.43 -0.25,-0.92 -0.68,-1zm-5.31 -1.86c0.22,-0.12 0.02,-0.45 -0.19,-0.33 -0.7,0.38 -0.61,1.38 -0.59,2.06 0.01,0.25 0.39,0.25 0.38,0 -0.02,-0.51 -0.14,-1.44 0.4,-1.73zm0.73 -0.36c0,-0.01 0,-0.01 0,-0.02 0,-0.25 -0.38,-0.25 -0.38,0 0,0.01 0,0.01 0,0.02 0,0.25 0.38,0.25 0.38,0z"/>
  <circle class="fil1 str0" cx="11.13" cy="11.13" r="10.78"/>
 </g>
</svg>
