<?xml version="1.0" encoding="UTF-8"?>
<!DOCTYPE svg PUBLIC "-//W3C//DTD SVG 1.1//EN" "http://www.w3.org/Graphics/SVG/1.1/DTD/svg11.dtd">
<!-- Creator: CorelDRAW 2021 (64-Bit) -->
<svg xmlns="http://www.w3.org/2000/svg" xml:space="preserve" width="6.447mm" height="6.447mm" version="1.1" style="shape-rendering:geometricPrecision; text-rendering:geometricPrecision; image-rendering:optimizeQuality; fill-rule:evenodd; clip-rule:evenodd"
viewBox="0 0 16.39 16.39"
 xmlns:xlink="http://www.w3.org/1999/xlink"
 xmlns:xodm="http://www.corel.com/coreldraw/odm/2003">
 <defs>
  <style type="text/css">
   <![CDATA[
    .str0 {stroke:#FEFEFE;stroke-width:0.51;stroke-linecap:round;stroke-linejoin:round;stroke-miterlimit:22.9256}
    .fil1 {fill:none}
    .fil0 {fill:#FEFEFE;fill-rule:nonzero}
   ]]>
  </style>
 </defs>
 <g id="Capa_x0020_1">
  <metadata id="CorelCorpID_0Corel-Layer"/>
  <g id="_2149409191376">
   <path class="fil0" d="M12.58 4.02c-0.11,0.17 -0.23,0.38 -0.36,0.53 -0.29,0.33 -0.6,0.38 -0.97,0.37 -0,0 -0,0 -0,0 -0.12,-0 -0.25,-0.01 -0.39,-0.01 -0.33,0.01 -0.67,0.01 -1,-0 -0.22,-0.01 -0.73,-0.05 -0.27,-0.22 0.2,-0.07 0.62,0.01 0.83,0.01 0.31,-0.01 0.63,-0.01 0.94,-0.02 0.21,-0.01 0.4,-0 0.58,-0.12 0.27,-0.17 0.31,-0.54 0.54,-0.73 0.5,-0.42 0.17,0.09 0.11,0.2zm-3.07 4.81c-0.12,-0.04 -0.25,-0.08 -0.37,-0.12 0.48,-1.2 0.98,-2.38 1.58,-3.52 0,-0 0,-0.01 0,-0.01 0.05,-0 0.1,-0.01 0.13,-0.01 0.06,0 0.12,0 0.19,0.01 -0.6,1.18 -1.04,2.42 -1.53,3.65zm2.27 2.56c-0.07,0.85 -1.11,0.81 -1.77,0.9 -0.86,0.12 -1.74,0.07 -2.61,0.08 -1.48,0.02 -4.28,-0.16 -3.8,-2.41 0.47,-2.19 3.01,-1.55 4.54,-1.22 1.24,0.25 3.79,0.99 3.64,2.65zm-0.85 1.34c-0.04,0.11 -0.17,0.15 -0.27,0.12 -0.12,-0.03 -0.18,-0.11 -0.12,-0.23 0.03,-0.06 0.09,-0.1 0.15,-0.13 0.03,-0 0.06,-0.01 0.09,-0.01 0.1,0.02 0.19,0.14 0.15,0.24zm-5.65 0c-0.04,0.11 -0.17,0.15 -0.27,0.12 -0.12,-0.03 -0.18,-0.11 -0.12,-0.23 0.05,-0.08 0.13,-0.13 0.22,-0.15 0.01,0 0.01,0.01 0.02,0.01 0.1,0.02 0.19,0.14 0.15,0.24zm-0.43 -7.29c0.08,-0.02 0.15,-0.05 0.23,-0.06 0,-0 0.01,-0 0.01,-0 -0,0.01 -0,0.03 0,0.04 0.22,0.89 0.47,1.78 0.69,2.67 -0.1,0 -0.19,0.01 -0.29,0.01 -0.21,-0.89 -0.43,-1.77 -0.63,-2.67zm-0.74 -0.2c-0.26,-0.07 -0.71,-0.55 -0.28,-0.71 0.45,-0.07 0.85,0.1 1.27,0.18 0.19,0.04 0.69,0.01 0.85,0.11 0.31,0.18 -0.26,0.21 -0.4,0.22 -0.22,0.02 -0.43,0.05 -0.64,0.1 -0.27,0.07 -0.53,0.18 -0.81,0.1zm8.56 -1.98c-0.18,0.03 -0.27,0.2 -0.37,0.34 -0.1,0.14 -0.18,0.29 -0.27,0.43 -0.2,0.3 -0.41,0.35 -0.76,0.38 -0.51,0.05 -1.04,0.03 -1.55,0.02 -0.27,-0.01 -0.58,-0.07 -0.67,0.24 -0.18,0.59 0.77,0.58 1.38,0.54 -0.58,1.12 -1.07,2.27 -1.54,3.44 -0.24,-0.06 -0.47,-0.12 -0.68,-0.16 -0.67,-0.15 -1.43,-0.34 -2.16,-0.38 -0.22,-0.92 -0.48,-1.83 -0.7,-2.75 -0,-0 -0,-0.01 -0,-0.01 0.29,-0.03 0.58,-0.02 0.87,-0.07 0.51,-0.09 0.39,-0.68 -0.09,-0.71 -0.4,-0.03 -0.79,-0.06 -1.19,-0.15 -0.38,-0.09 -0.71,-0.18 -1.1,-0.13 -0.02,-0 -0.04,-0 -0.06,0.01 -0.03,0.01 -0.05,0.02 -0.07,0.04 -0.36,0.2 -0.4,0.73 -0.07,1.01 0.22,0.18 0.62,0.23 0.89,0.2 0.03,-0 0.06,-0.01 0.08,-0.02 0.2,0.88 0.42,1.76 0.63,2.63 -0.5,0.09 -0.96,0.3 -1.35,0.73 -0.9,0.99 -0.68,2.52 0.45,3.23 0.15,0.1 0.32,0.18 0.48,0.24 -0.08,0.06 -0.15,0.14 -0.18,0.25 -0.08,0.26 0.11,0.47 0.36,0.52 0.23,0.04 0.49,-0.08 0.56,-0.31 0.02,-0.08 0.02,-0.17 -0.01,-0.26 0.3,0.05 0.6,0.07 0.9,0.08 1.03,0.03 2.1,0.04 3.13,-0.03 0.22,-0.01 0.48,-0.03 0.74,-0.05 -0.01,0.02 -0.02,0.03 -0.03,0.05 -0.08,0.26 0.11,0.47 0.36,0.52 0.23,0.04 0.49,-0.08 0.56,-0.31 0.04,-0.12 0.01,-0.27 -0.07,-0.38 0.14,-0.03 0.28,-0.07 0.4,-0.13 0.47,-0.2 0.59,-0.79 0.51,-1.25 -0.17,-1.07 -1.2,-1.73 -2.27,-2.13 0.5,-1.25 0.95,-2.52 1.57,-3.72 0.35,0.02 0.71,0 0.94,-0.22 0.21,-0.2 0.39,-0.57 0.54,-0.82 0.08,-0.13 0.27,-0.36 0.27,-0.53 -0.01,-0.21 -0.17,-0.4 -0.4,-0.36z"/>
   <path class="fil0" d="M8.63 9.5c-0.05,0.04 -0.1,0.08 -0.14,0.12 -0.21,-0.18 -0.42,-0.35 -0.64,-0.51 0.03,-0.03 0.06,-0.06 0.09,-0.06 0.05,-0.01 0.22,0.12 0.26,0.15 0.07,0.04 0.33,0.21 0.43,0.31zm-1.28 1.08c-0.09,0.84 -0.6,1.3 -1.45,1.2 -0.78,-0.09 -1.46,-0.65 -1.28,-1.52 0.15,-0.7 0.94,-1.31 1.66,-1.18 0.41,0.1 0.88,0.2 1.04,0.67 0,0.01 0,0.02 0.01,0.03 -0.43,0.2 -0.86,0.4 -1.31,0.54 -0.16,0.05 -0.09,0.31 0.07,0.25 0.44,-0.14 0.86,-0.33 1.28,-0.53 0.01,0.18 -0,0.38 -0.02,0.54zm0.21 -1.55c-0.04,0.04 -0.04,0.08 -0.03,0.12 0,0 0,0 0,0.01 0,0.01 0.01,0.02 0.01,0.03 0.01,0.02 0.02,0.04 0.05,0.06 0.12,0.08 0.23,0.16 0.33,0.25 -0.13,0.06 -0.26,0.13 -0.39,0.19 -0.17,-0.42 -0.55,-0.7 -1.18,-0.85 -0.87,-0.16 -1.79,0.51 -1.98,1.37 -0.21,0.95 0.49,1.69 1.39,1.84 0.93,0.15 1.65,-0.26 1.82,-1.22 0.06,-0.34 0.07,-0.63 0.02,-0.88 0.18,-0.09 0.36,-0.17 0.54,-0.26 0.08,0.07 0.16,0.14 0.24,0.2 0.05,0.04 0.11,0.04 0.15,0.02 0.02,-0.01 0.04,-0.01 0.06,-0.03 0.1,-0.09 0.37,-0.22 0.33,-0.4 -0.04,-0.16 -0.32,-0.3 -0.44,-0.4 -0.14,-0.11 -0.34,-0.26 -0.51,-0.3 -0.18,-0.05 -0.3,0.16 -0.41,0.27z"/>
   <path class="fil0" d="M10.88 10.99c-0,0.17 0.26,0.17 0.26,0 0.01,-0.35 -0.14,-0.69 -0.42,-0.91 -0.13,-0.1 -0.32,0.08 -0.19,0.19 0.23,0.18 0.35,0.43 0.34,0.73z"/>
   <path class="fil0" d="M10.86 11.33c-0.17,0 -0.17,0.26 0,0.26 0.17,0 0.17,-0.26 0,-0.26z"/>
  </g>
  <circle class="fil1 str0" cx="8.19" cy="8.19" r="7.94"/>
 </g>
</svg>
