<?xml version="1.0" encoding="UTF-8"?>
<!DOCTYPE svg PUBLIC "-//W3C//DTD SVG 1.1//EN" "http://www.w3.org/Graphics/SVG/1.1/DTD/svg11.dtd">
<!-- Creator: CorelDRAW 2021 (64-Bit) -->
<svg xmlns="http://www.w3.org/2000/svg" xml:space="preserve" width="6.447mm" height="6.447mm" version="1.1" style="shape-rendering:geometricPrecision; text-rendering:geometricPrecision; image-rendering:optimizeQuality; fill-rule:evenodd; clip-rule:evenodd"
viewBox="0 0 17.67 17.67"
 xmlns:xlink="http://www.w3.org/1999/xlink"
 xmlns:xodm="http://www.corel.com/coreldraw/odm/2003">
 <defs>
  <style type="text/css">
   <![CDATA[
    .str0 {stroke:#FEFEFE;stroke-width:0.55;stroke-linecap:round;stroke-linejoin:round;stroke-miterlimit:22.9256}
    .fil1 {fill:none}
    .fil0 {fill:#FEFEFE;fill-rule:nonzero}
   ]]>
  </style>
 </defs>
 <g id="Capa_x0020_1">
  <metadata id="CorelCorpID_0Corel-Layer"/>
  <g id="_2149254050336">
   <path class="fil0" d="M12.01 14.53c-1.75,0.08 -3.52,-0 -5.28,0.01 -0.41,0 -0.83,0.03 -1.24,0 -0.82,-0.06 -0.96,-0.6 -0.98,-1.22 0.68,-0.02 1.36,-0.09 2.04,-0.05 0.78,0.05 1.5,0.05 2.28,-0.01 0.7,-0.05 1.42,0 2.12,-0.01 0.42,-0.01 0.84,0.05 1.27,0.04 0.33,-0 0.68,-0.08 1.01,-0.07 0,0.14 -0,0.28 -0.01,0.42 -0.04,0.76 -0.54,0.85 -1.21,0.89zm-6.67 -8.85c0.25,-0.25 0.73,-0.44 0.94,-0.71 1.72,0.03 3.45,0.02 5.17,0.05 0.88,0.47 1.51,1.02 1.71,2.05 0.02,0.12 0.04,0.25 0.05,0.38 -2.87,-0.32 -5.82,-0.08 -8.71,-0.02 0.1,-0.64 0.32,-1.24 0.83,-1.76zm2.13 -2.56c0.63,-0 1.25,0.02 1.88,0.01 0.52,-0 1.04,-0.02 1.56,-0.03 0.43,-0.01 0.6,-0.09 0.7,0.34 0.05,0.2 0.04,0.42 -0.13,0.52 -0.11,0.07 -0.64,0.02 -0.77,0.02 -0.28,0 -0.57,-0.01 -0.85,-0.02 -0.58,-0.02 -1.15,-0.04 -1.72,-0.04 -0.63,0.01 -1.26,0.02 -1.89,0.02 -0.11,0 -0.18,-0 -0.23,-0.01 -0.05,-0.21 0.01,-0.59 0.03,-0.81 0.25,-0.13 1.18,-0.01 1.42,-0.01zm-1.08 1.56c0.01,-0.15 -0,-0.31 -0.02,-0.45 1.66,-0.07 3.32,0.09 4.98,0.03 -0,0.16 -0,0.32 0,0.48 -1.65,-0.03 -3.31,-0.02 -4.96,-0.05zm-1.88 8.18c-0.01,-1.13 -0.03,-2.25 -0.05,-3.38 -0.01,-0.58 -0.04,-1.18 0.01,-1.76 2.9,-0.06 5.86,-0.3 8.75,0.02 -0,0.33 -0.03,0.66 -0.04,0.97 -0,0.53 -0,1.05 0.02,1.59 0.04,0.82 -0.01,1.64 0.01,2.46 0,0.05 0,0.1 0,0.16 -0.29,-0.02 -0.56,0.05 -0.86,0.07 -0.42,0.02 -0.85,-0.05 -1.27,-0.04 -0.74,0 -1.53,-0.04 -2.26,0.01 -0.74,0.06 -1.41,0.07 -2.15,0.02 -0.73,-0.05 -1.45,0.02 -2.17,0.05 -0,-0.06 -0,-0.11 -0,-0.17zm9.01 -2.44c-0.02,-0.64 -0.05,-1.27 -0.04,-1.9 0.01,-0.69 0.08,-1.3 -0.15,-1.97 -0.16,-0.43 -0.37,-0.89 -0.73,-1.19 -0.24,-0.2 -0.71,-0.31 -0.89,-0.54 -0.07,-0.08 -0.07,-0.23 -0.06,-0.39 0.12,0.01 0.24,0.01 0.36,0 0.11,-0.01 0.21,-0.06 0.22,-0.18 0.01,-0.17 -0.14,-0.21 -0.3,-0.21 0,-0.35 0.06,-0.79 -0.03,-1.12 -0.01,-0.05 -0.05,-0.09 -0.1,-0.1 -0.42,-0.11 -0.95,-0.01 -1.39,-0 -0.66,0.01 -1.32,0.02 -1.99,0.01 -0.58,-0.01 -1.16,0 -1.74,0 -0.29,0 -0.64,-0.1 -0.86,0.12 -0.01,0.01 -0.02,0.03 -0.03,0.04 -0,0 -0,0 -0,0 -0.01,0.02 -0.01,0.03 -0.01,0.05 -0,0 -0,0.01 -0,0.01 -0.01,0.32 -0,0.64 -0,0.95 -0.16,0 -0.3,0.05 -0.27,0.21 0.02,0.12 0.14,0.15 0.24,0.14 0.12,-0 0.24,-0.02 0.37,-0.01 0.02,0.16 0.04,0.34 0.03,0.36 -0,0 -0,0.01 -0.01,0.01 -0,0 -0,0 -0,0 -0.07,0.11 -0.36,0.23 -0.46,0.3 -0.44,0.33 -0.82,0.71 -1.07,1.2 -0.58,1.1 -0.43,2.32 -0.41,3.51 0.01,0.69 0.02,1.37 0.03,2.06 0.01,0.64 -0.07,1.35 0.03,1.98 0.15,0.95 0.92,1.06 1.75,1.06 0.99,0 1.98,-0.03 2.97,-0.02 1.18,0.02 2.46,0.17 3.63,-0.02 0.83,-0.14 0.93,-0.68 0.94,-1.4 0.01,-0.99 0.03,-1.99 -0.01,-2.97z"/>
   <path class="fil0" d="M6.58 3.7c-0,-0.11 0,-0.22 0,-0.33 0.01,-0.19 -0.28,-0.19 -0.29,0 -0.01,0.11 -0.01,0.22 -0,0.33 0,0.19 0.3,0.19 0.29,0z"/>
   <path class="fil0" d="M8.96 3.7c-0,-0.11 0,-0.22 0,-0.33 0.01,-0.19 -0.28,-0.19 -0.29,0 -0.01,0.11 -0.01,0.22 -0.01,0.33 0,0.19 0.3,0.19 0.29,0z"/>
   <path class="fil0" d="M7.37 3.7c-0,-0.11 0,-0.22 0.01,-0.33 0.01,-0.19 -0.28,-0.19 -0.29,0 -0,0.11 -0.01,0.22 -0,0.33 0,0.19 0.3,0.19 0.29,0z"/>
   <path class="fil0" d="M8.17 3.7c-0,-0.11 0,-0.22 0,-0.33 0.01,-0.19 -0.28,-0.19 -0.29,0 -0,0.11 -0.01,0.22 -0,0.33 0,0.19 0.3,0.19 0.29,0z"/>
   <path class="fil0" d="M9.76 3.7c-0,-0.11 -0,-0.22 0.01,-0.33 0.01,-0.19 -0.28,-0.19 -0.29,0 -0,0.11 -0.01,0.22 -0,0.33 0,0.19 0.3,0.19 0.29,0z"/>
   <path class="fil0" d="M10.55 3.7c-0,-0.11 0,-0.22 0,-0.33 0.01,-0.19 -0.28,-0.19 -0.29,0 -0,0.11 -0.01,0.22 -0,0.33 0,0.19 0.3,0.19 0.29,0z"/>
   <path class="fil0" d="M11.34 3.7c-0,-0.11 0,-0.22 0.01,-0.33 0.01,-0.19 -0.28,-0.19 -0.29,0 -0,0.11 -0.01,0.22 -0,0.33 0,0.19 0.3,0.19 0.29,0z"/>
   <path class="fil0" d="M7.02 12.02c0.06,0.15 0.27,0.13 0.29,-0.04 0.08,-1.02 0.14,-2.04 0.19,-3.07 0.01,-0.19 -0.28,-0.19 -0.29,0 -0.03,0.78 -0.08,1.55 -0.14,2.33 -0.23,-0.79 -0.37,-1.6 -0.5,-2.42 -0.02,-0.14 -0.25,-0.14 -0.28,0 -0.16,0.76 -0.27,1.56 -0.45,2.33 -0.07,-0.76 -0.13,-1.53 -0.21,-2.29 -0.02,-0.19 -0.31,-0.19 -0.29,0 0.1,1.04 0.18,2.08 0.28,3.12 0.02,0.16 0.24,0.2 0.29,0.04 0.24,-0.74 0.37,-1.54 0.51,-2.32 0.14,0.79 0.32,1.57 0.61,2.32z"/>
   <path class="fil0" d="M8.21 11.9c-0.08,-0.46 -0.12,-0.91 -0.15,-1.37 0.14,0 0.29,-0.01 0.44,-0 0.16,0.01 0.33,0.02 0.49,0.02 0.02,0.48 0.04,0.95 0.07,1.43 0.01,0.19 0.31,0.19 0.29,0 -0.07,-1.02 -0.1,-2.02 -0.1,-3.04 0,-0.19 -0.29,-0.19 -0.29,0 -0,0.44 0.01,0.87 0.02,1.31 -0.16,-0 -0.32,-0.01 -0.49,-0.02 -0.15,-0.01 -0.3,0.01 -0.44,0.01 -0.01,-0.43 -0,-0.85 0.03,-1.28 0.01,-0.19 -0.28,-0.19 -0.29,0 -0.08,1.01 -0.03,2.02 0.14,3.02 0.03,0.19 0.31,0.11 0.28,-0.08z"/>
   <path class="fil0" d="M9.69 11.89c0.14,0.45 0.69,0.36 1.08,0.29 0.19,-0.03 0.11,-0.31 -0.08,-0.28 -0.5,0.09 -0.64,-0.03 -0.75,-0.53 -0.05,-0.22 -0.03,-0.49 -0.04,-0.72 0.24,0.02 0.49,0.03 0.73,0.02 0.19,-0.01 0.19,-0.3 0,-0.29 -0.25,0.01 -0.5,0 -0.74,-0.02 -0.02,-0.42 -0.03,-0.85 -0.03,-1.27 0.26,0 0.51,0.01 0.77,0.01 0.19,0 0.19,-0.29 0,-0.29 -0.29,-0 -0.59,-0.01 -0.88,-0.01 -0.05,-0 -0.08,0.02 -0.11,0.05 -0.04,0.02 -0.08,0.06 -0.08,0.12 0,0.52 0.01,1.04 0.04,1.56 0.02,0.41 -0.03,0.96 0.09,1.36z"/>
   <path class="fil0" d="M11.59 10.68c0,0.01 0.01,0.02 0.02,0.03 -0,0.43 0.02,0.85 0.07,1.27 0.02,0.19 0.31,0.19 0.29,0 -0.05,-0.43 -0.07,-0.87 -0.07,-1.3 0.12,-0.16 0.15,-0.41 0.2,-0.59 0.1,-0.38 0.2,-0.76 0.28,-1.14 0.04,-0.18 -0.24,-0.26 -0.28,-0.08 -0.06,0.28 -0.13,0.55 -0.2,0.82 -0.02,0.1 -0.07,0.4 -0.14,0.62 -0.18,-0.46 -0.36,-0.92 -0.54,-1.39 -0.07,-0.17 -0.35,-0.1 -0.28,0.08 0.21,0.56 0.43,1.12 0.65,1.68z"/>
   <path class="fil0" d="M5.31 7.02c0.12,-0.45 0.43,-0.82 0.86,-1 0.17,-0.07 0.1,-0.36 -0.08,-0.28 -0.53,0.22 -0.92,0.65 -1.06,1.2 -0.05,0.18 0.23,0.26 0.28,0.08z"/>
   <path class="fil0" d="M6.5 5.87c0.19,0 0.19,-0.29 0,-0.29 -0.19,0 -0.19,0.29 0,0.29z"/>
  </g>
  <circle class="fil1 str0" cx="8.83" cy="8.83" r="8.56"/>
 </g>
</svg>
