<?xml version="1.0" encoding="UTF-8"?>
<!DOCTYPE svg PUBLIC "-//W3C//DTD SVG 1.1//EN" "http://www.w3.org/Graphics/SVG/1.1/DTD/svg11.dtd">
<!-- Creator: CorelDRAW 2021 (64-Bit) -->
<svg xmlns="http://www.w3.org/2000/svg" xml:space="preserve" width="6.447mm" height="6.447mm" version="1.1" style="shape-rendering:geometricPrecision; text-rendering:geometricPrecision; image-rendering:optimizeQuality; fill-rule:evenodd; clip-rule:evenodd"
viewBox="0 0 18.97 18.97"
 xmlns:xlink="http://www.w3.org/1999/xlink"
 xmlns:xodm="http://www.corel.com/coreldraw/odm/2003">
 <defs>
  <style type="text/css">
   <![CDATA[
    .str0 {stroke:#FEFEFE;stroke-width:0.59;stroke-linecap:round;stroke-linejoin:round;stroke-miterlimit:22.9256}
    .fil1 {fill:none}
    .fil0 {fill:#FEFEFE;fill-rule:nonzero}
   ]]>
  </style>
 </defs>
 <g id="Capa_x0020_1">
  <metadata id="CorelCorpID_0Corel-Layer"/>
  <path class="fil0" d="M13.39 13.52c-0.11,0.65 -0.27,1.76 -0.92,2.11 -0.47,0.25 -1.26,0.14 -1.76,0.13 -1.21,-0.02 -2.58,0.18 -3.77,-0.06 -1.11,-0.22 -1.34,-1.22 -1.38,-2.22 0.8,0.22 1.67,0.05 2.48,0.03 0.99,-0.02 1.97,0.01 2.95,0.08 0.09,0.01 0.14,-0.07 0.15,-0.15 0.06,-0.74 -0.07,-1.49 -0.02,-2.23 0.05,-0.9 0.14,-1.77 0.07,-2.67 -0.01,-0.08 -0.06,-0.15 -0.15,-0.15 -1.81,0.02 -3.61,0.01 -5.42,0 -0,-0.41 -0.01,-0.85 0.11,-1.24 0.2,-0.65 0.74,-0.98 1.25,-1.37 0.89,-0.05 1.81,-0.03 2.69,-0.01 0.56,0.01 1.12,0.04 1.68,0.02 0.21,-0.01 0.46,0.01 0.71,0.01 0.9,0.38 1.28,1.05 1.35,1.94 0.07,0.94 0.05,1.88 0.04,2.82 -0.01,0.96 0.1,1.99 -0.05,2.94zm-3.91 -4.78c0.31,-0.01 0.99,-0.17 1.29,-0.04 0.13,-0.05 0.18,-0 0.14,0.13 0.01,0.18 0.02,0.37 0.01,0.55 -0,0.31 -0.02,0.61 -0.04,0.92 -0.04,0.67 -0.11,1.35 -0.08,2.02 0.01,0.19 0.11,0.52 0.06,0.71 -0.09,0.37 -0.35,0.23 -0.71,0.22 -0.75,-0.04 -1.5,-0.05 -2.25,-0.03 -0.77,0.02 -1.6,0.18 -2.35,-0.05 -0,-0.34 0.01,-0.68 0.01,-0.97 0.01,-1.17 0.04,-2.33 0.05,-3.5 1.29,0.01 2.58,0.07 3.87,0.05zm-3.2 -4.65c0,-0.15 -0.04,-0.5 0.04,-0.64 0.2,-0.36 1.12,-0.28 1.45,-0.28 0.8,-0.01 1.59,0 2.39,0.01 0.63,0.01 1.53,-0.11 2.12,0.1 0.47,0.17 0.42,0.46 0.42,0.86 0,0.27 0.06,0.59 0.01,0.85 -0.1,0.48 -0.4,0.49 -0.83,0.5 -0.34,0.01 -0.67,0.03 -1.01,0.03 -1.39,0 -2.79,-0.12 -4.18,-0.02 -0.6,0.02 -0.42,-1 -0.4,-1.41zm7.31 2.86c-0.12,-0.47 -0.56,-0.9 -1.02,-1.19 0.01,-0 0.03,-0.01 0.04,-0.01 0.6,-0.19 0.39,-1.03 0.39,-1.52 -0,-0.84 0.08,-1.18 -0.85,-1.26 -1.1,-0.1 -2.2,-0.09 -3.3,-0.1 -0.64,-0.01 -1.29,-0.01 -1.93,0.03 -0.24,0.02 -0.65,-0.02 -0.83,0.21 -0.27,0.35 -0.12,1.37 -0.13,1.76 -0,0.53 0.03,0.87 0.51,0.92 -0.57,0.45 -1.02,0.89 -1.12,1.69 -0.14,1.1 -0.07,2.27 -0.08,3.37 -0.02,1.71 -0.59,4.86 1.79,5.17 1.18,0.15 2.44,0.01 3.63,0.03 0.79,0.02 1.79,0.16 2.32,-0.55 0.62,-0.8 0.73,-2.09 0.71,-3.07 -0.02,-0.96 0.01,-1.92 0.01,-2.88 0,-0.85 0.06,-1.79 -0.16,-2.62zm-6.39 -2.13c-0.02,-0.32 -0.02,-0.64 -0.02,-0.96 0,-0.19 -0.3,-0.19 -0.3,0 -0,0.32 0,0.64 0.02,0.96 0.01,0.19 0.31,0.19 0.3,0zm4.85 0c-0.02,-0.32 -0.02,-0.64 -0.02,-0.96 0,-0.19 -0.3,-0.19 -0.3,0 -0,0.32 0,0.64 0.02,0.96 0.01,0.19 0.31,0.19 0.3,0zm-3.64 0c-0.02,-0.32 -0.02,-0.64 -0.02,-0.96 0,-0.19 -0.3,-0.19 -0.3,0 -0,0.32 0,0.64 0.02,0.96 0.01,0.19 0.31,0.19 0.3,0zm2.42 0c-0.02,-0.32 -0.02,-0.64 -0.02,-0.96 0,-0.19 -0.3,-0.19 -0.3,0 -0,0.32 0,0.64 0.02,0.96 0.01,0.19 0.31,0.19 0.3,0zm-1.21 0c-0.02,-0.32 -0.02,-0.64 -0.02,-0.96 0,-0.19 -0.3,-0.19 -0.3,0 -0,0.32 0,0.64 0.02,0.96 0.01,0.19 0.31,0.19 0.3,0zm-3.08 6.31c0.03,-0.1 0.11,-0.21 0.16,-0.3 0.09,-0.16 0.2,-0.32 0.3,-0.47 0.33,0.28 0.68,0.52 1.07,0.71 -0.16,0.2 -0.33,0.4 -0.48,0.6 -0.19,0.24 -0.61,0.51 -0.89,0.24 -0.14,-0.13 -0.21,-0.62 -0.16,-0.79zm1.94 -1.67c0.34,0.22 0.33,0.55 0.14,0.87 -0.11,0.18 -0.23,0.34 -0.36,0.51 -0.39,-0.19 -0.75,-0.43 -1.08,-0.72 0.07,-0.1 0.15,-0.2 0.22,-0.31 0.26,-0.35 0.65,-0.63 1.08,-0.35zm1.39 1.54c-0.43,0.03 -0.85,0.01 -1.27,-0.07 0.29,-0.38 0.51,-0.79 0.43,-1.2 0.8,-0.33 0.9,0.48 0.84,1.27zm-0.18 1.13c-0.19,0.84 -1.04,0.72 -1.18,-0.12 -0.04,-0.24 -0.01,-0.54 0.01,-0.79 0.44,0.08 0.88,0.11 1.32,0.08 -0.05,0.36 -0.11,0.67 -0.15,0.83zm-2.53 0.21c0.34,-0.03 0.51,-0.29 0.71,-0.54 0.09,-0.12 0.21,-0.25 0.34,-0.4 -0.04,0.49 -0.08,1.11 0.3,1.43 0.44,0.37 1.24,0.2 1.42,-0.36 0.12,-0.35 0.11,-0.77 0.16,-1.14 0.05,-0.42 0.21,-0.95 0.07,-1.36 -0.19,-0.54 -0.74,-0.7 -1.23,-0.52 -0.18,-0.31 -0.56,-0.5 -0.91,-0.47 -0.42,0.04 -0.65,0.35 -0.88,0.66 -0.37,0.51 -1.22,1.39 -0.96,2.09 0.14,0.37 0.59,0.64 0.98,0.6zm4.14 -6.1c-0.19,-0.03 -0.27,0.26 -0.08,0.29 0.48,0.08 0.91,0.31 1.15,0.75 0.23,0.41 0.19,0.92 0.21,1.37 0.01,0.19 0.31,0.19 0.3,0 -0.03,-0.56 0.01,-1.16 -0.32,-1.65 -0.29,-0.43 -0.75,-0.68 -1.25,-0.77zm1.42 2.91c-0.19,0 -0.19,0.3 0,0.3 0.19,0 0.19,-0.3 0,-0.3z"/>
  <circle class="fil1 str0" cx="9.48" cy="9.48" r="9.19"/>
 </g>
</svg>
