<?xml version="1.0" encoding="UTF-8"?>
<!DOCTYPE svg PUBLIC "-//W3C//DTD SVG 1.1//EN" "http://www.w3.org/Graphics/SVG/1.1/DTD/svg11.dtd">
<!-- Creator: CorelDRAW 2021 (64-Bit) -->
<svg xmlns="http://www.w3.org/2000/svg" xml:space="preserve" width="6.9902mm" height="6.9902mm" version="1.1" style="shape-rendering:geometricPrecision; text-rendering:geometricPrecision; image-rendering:optimizeQuality; fill-rule:evenodd; clip-rule:evenodd"
viewBox="0 0 76.99 76.99"
 xmlns:xlink="http://www.w3.org/1999/xlink"
 xmlns:xodm="http://www.corel.com/coreldraw/odm/2003">
 <defs>
  <style type="text/css">
   <![CDATA[
    .str1 {stroke:#FEFEFE;stroke-width:2.2;stroke-miterlimit:22.9256}
    .str0 {stroke:#FEFEFE;stroke-width:0.78;stroke-linecap:round;stroke-linejoin:round;stroke-miterlimit:22.9256}
    .fil2 {fill:none}
    .fil0 {fill:#FEFEFE;fill-rule:nonzero}
    .fil1 {fill:#D2D3D5;fill-rule:nonzero}
   ]]>
  </style>
 </defs>
 <g id="Capa_x0020_1">
  <metadata id="CorelCorpID_0Corel-Layer"/>
  <g id="_2202334606864">
   <path class="fil0 str0" d="M60.99 52.06c-0.56,0.93 -1.51,0.89 -2.46,0.92 -0.03,-0.08 -0.07,-0.16 -0.1,-0.24 -0.51,-1.32 -0.98,-2.64 -1.47,-3.97 0.71,-0.01 1.41,-0 2.12,0.02 0.96,0.03 1.69,-0.04 1.98,1 0.2,0.74 0.33,1.58 -0.08,2.27zm-6.1 2.52c-1.62,-0.15 -2.04,-0.64 -2.5,-2.09 -0.47,-1.46 -0.95,-2.92 -1.43,-4.38 -0.01,-0.02 -0.01,-0.04 -0.02,-0.06 -0.22,-0.66 -0.43,-1.32 -0.65,-1.98 -1.49,-4.49 -3,-8.97 -4.62,-13.41 1.61,-0.19 3.22,-0.37 4.83,-0.55 0,0.02 -0,0.04 0,0.06 0.38,1.78 1.21,3.43 1.62,5.21 0.42,1.82 0.98,3.6 1.57,5.37 0.63,1.92 1.31,3.83 2.01,5.73 0,0 0,0 0,0 0.05,0.13 0.1,0.27 0.14,0.4 0.43,1.16 1.97,3.65 1.84,4.87 -0.11,1.02 -1.8,0.92 -2.78,0.83zm-33.26 -1.43c-1.37,-0.01 -2.84,0.13 -4.19,-0.04 -1.6,-0.2 -1.56,-0.31 -1.65,-1.51 -0.07,-0.98 -0.13,-1.44 0.66,-1.95 1.43,-0.94 5.16,-0.53 6.9,-0.6 8.9,-0.38 17.81,-0.06 26.71,-0.21 0.08,0.25 0.17,0.49 0.25,0.74 0.3,0.9 0.54,2.48 0.98,3.8 -9.88,-0.06 -19.77,-0.13 -29.65,-0.22zm2.96 1.51c-0.5,0.08 -1.06,0.03 -1.57,0.05 -0.36,0.01 -2.92,0.29 -2.86,-0.33 0,-0.05 -0.01,-0.09 -0.02,-0.14 1.64,0.03 3.29,0.06 4.93,0.09 -0.01,0.25 -0.12,0.28 -0.49,0.34zm3.28 -22.59c-0.43,-1.81 6.04,-1.71 7.43,-1.85 2.88,-0.3 5.75,-0.59 8.63,-0.85 2.56,-0.23 5.1,-0.63 7.67,-0.75 1.19,-0.06 2.38,-0.12 3.57,-0.25 0.69,-0.08 3.41,-0.84 4.05,-0.32 1.63,1.32 -1.24,2.06 -2.01,2.17 -1.43,0.21 -2.87,0.37 -4.3,0.53 -2.64,0.3 -5.29,0.57 -7.93,0.9 -2.94,0.37 -5.88,0.68 -8.83,0.91 -1.52,0.12 -7.86,1.26 -8.27,-0.49zm26.48 -9.15c0.12,-0.08 0.74,-0.71 0.92,-0.67 0.31,0.07 0.6,1.02 0.77,1.35 0.56,1.09 0.94,2.22 1.27,3.4 -0.4,0.06 -0.82,0.12 -1.23,0.18 -3.02,0.37 -6.08,0.61 -9.13,0.86 2.37,-1.84 4.96,-3.38 7.41,-5.12zm7.87 27.06c-0.17,-0.87 -0.45,-1.7 -1.33,-2.07 -0.56,-0.23 -1.2,-0.19 -1.8,-0.21 -0.84,-0.03 -1.68,-0.04 -2.52,-0.01 -0.2,-0.55 -0.41,-1.09 -0.61,-1.64 -0.88,-2.47 -1.74,-4.96 -2.43,-7.49 -0.59,-2.19 -1.49,-4.39 -1.97,-6.59 1.66,-0.19 3.31,-0.37 4.97,-0.59 1.59,-0.21 4.37,-0.09 4.21,-2.26 -0.14,-1.9 -1.11,-2.28 -2.35,-2.24 -0.4,-1.56 -1.33,-5.98 -3.25,-5.78 -1.17,0.12 -2.97,1.97 -3.93,2.6 -2.08,1.36 -4.14,2.73 -6.04,4.33 -0.06,0.05 -0.09,0.1 -0.12,0.15 -0.54,0.05 -1.07,0.09 -1.61,0.14 -4.3,0.39 -8.62,0.76 -12.91,1.25 -1.78,0.2 -4.09,0.12 -3.85,2.41 0.25,2.29 1.99,2.11 3.82,2.02 4.71,-0.24 9.4,-0.66 14.07,-1.23 0.01,0.04 0,0.07 0.02,0.12 1.8,4.91 3.46,9.87 5.09,14.84 -10.54,0.17 -21.1,-0.31 -31.63,0.53 -2.85,0.23 -3.7,0.73 -3.32,3.8 0.24,1.91 1.24,2.07 3.1,2.12 0.43,0.01 0.85,0.01 1.27,0.02 -0.02,0.05 -0.04,0.1 -0.05,0.16 -0.21,2.04 2.69,1.45 3.94,1.42 0.71,-0.02 1.92,0.2 2.56,-0.14 0.44,-0.23 0.56,-0.81 0.57,-1.31 8.53,0.1 17.08,0.06 25.61,0.11 0.2,0.35 0.41,0.67 0.68,0.86 1.08,0.8 4.86,0.71 5.86,0.09 0.62,-0.39 0.71,-0.85 0.61,-1.36 1.06,-0.04 2.03,-0.16 2.77,-1.08 0.71,-0.89 0.75,-1.91 0.54,-2.98z"/>
   <path class="fil1" d="M49.84 36.22c-0.23,-0.65 -1.28,-0.37 -1.04,0.29 1.6,4.54 3,9.16 4.68,13.68 0.24,0.65 1.29,0.37 1.04,-0.29 -1.68,-4.52 -3.07,-9.13 -4.68,-13.68z"/>
   <path class="fil1" d="M36.08 39.26c0.7,-0 0.7,-1.08 0,-1.08 -2.74,0 -5.47,-0.1 -8.21,-0.11 -0.7,-0 -0.7,1.08 0,1.08 2.74,0 5.47,0.11 8.21,0.11z"/>
   <path class="fil1" d="M22.49 39.2c0.62,0.01 1.25,-0.01 1.87,0 0.7,0.01 0.7,-1.07 0,-1.08 -0.62,-0.01 -1.25,0.01 -1.87,0 -0.7,-0.01 -0.7,1.07 0,1.08z"/>
   <path class="fil1" d="M22.26 43.76c3.93,-0.22 7.92,0.01 11.87,-0.07 0.7,-0.01 0.7,-1.1 0,-1.08 -3.95,0.08 -7.94,-0.16 -11.87,0.07 -0.69,0.04 -0.7,1.12 0,1.08z"/>
   <path class="fil1" d="M41.97 43.81c0.7,0.05 0.69,-1.03 0,-1.08 -1.56,-0.12 -3.13,-0.01 -4.7,-0.03 -0.7,-0.01 -0.7,1.07 0,1.08 1.57,0.02 3.13,-0.09 4.7,0.03z"/>
   <path class="fil1" d="M17.39 43.77c0.66,-0.06 1.34,-0.06 1.99,0 0.69,0.06 0.69,-1.02 0,-1.08 -0.65,-0.06 -1.34,-0.06 -1.99,0 -0.69,0.06 -0.7,1.14 0,1.08z"/>
  </g>
  <circle class="fil2 str1" cx="38.5" cy="38.5" r="37.4"/>
 </g>
</svg>
