<?xml version="1.0" encoding="UTF-8"?>
<!DOCTYPE svg PUBLIC "-//W3C//DTD SVG 1.1//EN" "http://www.w3.org/Graphics/SVG/1.1/DTD/svg11.dtd">
<!-- Creator: CorelDRAW 2021 (64-Bit) -->
<svg xmlns="http://www.w3.org/2000/svg" xml:space="preserve" width="6.447mm" height="6.447mm" version="1.1" style="shape-rendering:geometricPrecision; text-rendering:geometricPrecision; image-rendering:optimizeQuality; fill-rule:evenodd; clip-rule:evenodd"
viewBox="0 0 22.41 22.41"
 xmlns:xlink="http://www.w3.org/1999/xlink"
 xmlns:xodm="http://www.corel.com/coreldraw/odm/2003">
 <defs>
  <style type="text/css">
   <![CDATA[
    .str0 {stroke:#FEFEFE;stroke-width:0.7;stroke-linecap:round;stroke-linejoin:round;stroke-miterlimit:22.9256}
    .fil1 {fill:none}
    .fil0 {fill:#FEFEFE;fill-rule:nonzero}
   ]]>
  </style>
 </defs>
 <g id="Capa_x0020_1">
  <metadata id="CorelCorpID_0Corel-Layer"/>
  <path class="fil0" d="M17.27 14.14c-0.04,1.1 -0.41,2.12 -0.99,3.04 -0.7,1.12 -2.06,0.9 -3.23,0.93 -1.39,0.03 -2.77,0.04 -4.16,0.02 -0.91,-0.02 -1.73,0.06 -2.44,-0.62 -0.65,-0.63 -0.97,-1.51 -1.23,-2.35 -0.45,-1.47 0.26,-3.61 1.21,-4.75 1.2,-1.44 3.09,-1.71 4.85,-1.73 1.72,0.02 3.41,0.45 4.68,1.68 1.03,0.99 1.35,2.41 1.29,3.79zm-5.98 -5.85c-1.2,0.01 -2.45,0.13 -3.54,0.64 -0.46,-0.59 -1.05,-1.36 -0.56,-2.12 0.39,-0.59 1.05,-0.55 1.66,-0.62 0.68,-0.07 1.35,-0.12 2.04,-0.13 0.95,-0 1.96,-0.07 2.91,0.07 0.67,0.1 1.26,0.38 1.3,1.16 0.03,0.62 -0.43,1.1 -0.74,1.6 -0.94,-0.41 -1.92,-0.59 -3.07,-0.6zm-4.62 -3.58c1.31,-0.66 3.13,-0.39 4.57,-0.41 0.72,-0.01 1.45,-0 2.17,0.03 1,0.04 2.17,-0.06 2.95,0.67 0.65,0.6 0.83,1.63 0.77,2.48 -0.07,1 -0.6,1.67 -1.08,2.46 -0.06,-0.05 -0.12,-0.11 -0.19,-0.16 -0.39,-0.29 -0.77,-0.53 -1.16,-0.73 0.55,-0.86 1.39,-2.11 0.25,-2.91 -1.12,-0.79 -3.1,-0.46 -4.36,-0.45 -0.55,0.01 -1.09,0.06 -1.65,0.11 -0.54,0.06 -1.25,0.04 -1.71,0.38 -1.13,0.85 -0.48,2.06 0.17,2.93 -0.12,0.07 -0.23,0.13 -0.34,0.2 -0.29,0.2 -0.54,0.43 -0.77,0.68 -0.54,-0.82 -1.22,-1.61 -1.17,-2.65 0.04,-1.08 0.56,-2.13 1.54,-2.62zm10.91 7.84c-0.15,-0.84 -0.62,-1.71 -1.24,-2.35 0.5,-0.85 1.06,-1.56 1.16,-2.59 0.09,-0.88 -0.07,-1.95 -0.65,-2.65 -0.57,-0.69 -1.34,-0.9 -2.19,-0.96 -1.14,-0.08 -2.29,-0.1 -3.43,-0.09 -1.74,0.02 -4,-0.35 -5.42,0.9 -0.69,0.6 -1.02,1.6 -1.09,2.5 -0.08,1.17 0.72,2.06 1.32,2.99 -0.57,0.74 -0.93,1.64 -1.12,2.56 -0.26,1.29 -0.2,2.27 0.33,3.49 0.28,0.65 0.78,1.44 1.38,1.84 0.41,0.28 0.92,0.27 1.4,0.29 1.47,0.06 2.94,0.04 4.4,0.02 0.95,-0.02 2.11,0.12 3.04,-0.13 0.91,-0.26 1.37,-1.31 1.72,-2.1 0.49,-1.13 0.61,-2.5 0.39,-3.71zm-6.6 1.25c-2.03,-0.08 -1.29,-3.08 0.54,-2.83 0.72,0.14 1.2,0.83 1.24,1.55 0.05,1.02 -0.94,1.31 -1.77,1.28zm0.64 -3.2c-1,-0.14 -1.92,0.44 -2.18,1.42 -0.25,0.96 0.13,1.92 1.15,2.12 0.97,0.19 2.32,-0.12 2.52,-1.23 0.18,-0.99 -0.49,-2.11 -1.49,-2.31zm-3.27 -0.82c-1.05,0.57 -1.8,1.53 -2.12,2.68 -0.07,0.24 0.3,0.34 0.37,0.1 0.29,-1.06 0.98,-1.93 1.95,-2.46 0.22,-0.12 0.02,-0.45 -0.19,-0.33zm-2.15 3.4c-0.25,0 -0.25,0.38 0,0.38 0.25,0 0.25,-0.38 0,-0.38z"/>
  <circle class="fil1 str0" cx="11.21" cy="11.21" r="10.86"/>
 </g>
</svg>
