<?xml version="1.0" encoding="UTF-8"?>
<!DOCTYPE svg PUBLIC "-//W3C//DTD SVG 1.1//EN" "http://www.w3.org/Graphics/SVG/1.1/DTD/svg11.dtd">
<!-- Creator: CorelDRAW 2021 (64-Bit) -->
<svg xmlns="http://www.w3.org/2000/svg" xml:space="preserve" width="6.447mm" height="6.447mm" version="1.1" style="shape-rendering:geometricPrecision; text-rendering:geometricPrecision; image-rendering:optimizeQuality; fill-rule:evenodd; clip-rule:evenodd"
viewBox="0 0 16.53 16.53"
 xmlns:xlink="http://www.w3.org/1999/xlink"
 xmlns:xodm="http://www.corel.com/coreldraw/odm/2003">
 <defs>
  <style type="text/css">
   <![CDATA[
    .str0 {stroke:#FEFEFE;stroke-width:0.51;stroke-linecap:round;stroke-linejoin:round;stroke-miterlimit:22.9256}
    .fil1 {fill:none}
    .fil0 {fill:#FEFEFE;fill-rule:nonzero}
   ]]>
  </style>
 </defs>
 <g id="Capa_x0020_1">
  <metadata id="CorelCorpID_0Corel-Layer"/>
  <path class="fil0" d="M13.18 11.11c-0.68,0.39 -1.34,0.77 -2.03,1.12 0.02,-0.47 0.06,-0.94 0.07,-1.41 0.88,-0.54 1.88,-0.84 2.75,-1.39 -0,0.31 -0.01,0.62 -0.01,0.93 0,0.47 -0.41,0.54 -0.78,0.75zm-6.03 -0.58c0.17,-0.26 0.29,-0.55 0.38,-0.87 0.16,0.15 0.32,0.3 0.48,0.45 -0.29,0.15 -0.58,0.29 -0.87,0.43zm-4.06 -0.61c-0.98,-1.27 -0.78,-3.84 0.8,-4.6 0.1,-0.05 0.21,-0.09 0.33,-0.13 0.01,0 0.02,0 0.03,-0 0.05,-0.01 0.1,-0.03 0.15,-0.04 0.77,-0.17 1.63,0.03 2.19,0.57 0.49,0.46 0.87,1.08 1.3,1.6 0.99,1.18 2.02,2.32 3.05,3.47 -0.01,0.47 -0.05,0.93 -0.07,1.4 -1.15,-0.9 -2.25,-1.87 -3.31,-2.87 -0.02,-0.02 -0.05,-0.03 -0.07,-0.03 -0.05,-0.02 -0.12,-0 -0.14,0.06l-0 0c-0,0 -0,0.01 -0,0.01 -0,0.01 -0.01,0.01 -0.01,0.02 -0,-0 -0,-0 -0,-0 -0.28,1.03 -0.85,1.84 -2.04,1.79 -0.79,-0.03 -1.73,-0.64 -2.2,-1.25zm1.64 -5.58c0.07,-0.14 0.33,-0.15 0.45,-0.13 0.16,0.03 0.28,0.18 0.37,0.32 -0.22,0.06 -0.43,0.13 -0.63,0.19 -0.01,-0.01 -0.01,-0.03 -0.03,-0.04 -0.09,-0.08 -0.24,-0.21 -0.17,-0.34zm5.51 0.58c1.42,1.19 2.57,2.74 3.68,4.21 -0.45,0.3 -0.92,0.52 -1.42,0.74 -0.21,0.09 -0.43,0.18 -0.64,0.28 -0.15,0.07 -0.62,0.42 -0.76,0.38 -0.22,-0.06 -0.61,-0.69 -0.76,-0.86 -0.33,-0.36 -0.65,-0.73 -0.97,-1.1 -0.65,-0.74 -1.29,-1.48 -1.9,-2.25 -0.46,-0.58 -0.86,-1.12 -1.6,-1.37 -0.15,-0.05 -0.28,-0.08 -0.42,-0.11 1.62,-0.49 3.5,-1.02 4.8,0.07zm4.01 4.25c0,-0.01 -0,-0.03 -0.01,-0.04 -0,-0.01 -0.01,-0.02 -0.01,-0.02 -0,-0 -0,-0 -0,-0 -0.65,-0.86 -1.31,-1.71 -2.01,-2.52 -0.64,-0.74 -1.33,-1.61 -2.15,-2.13 -1.21,-0.77 -2.8,-0.42 -4.24,-0 -0,-0 -0,-0.01 -0,-0.01 -0.22,-0.37 -0.55,-0.6 -0.99,-0.47 -0.18,0.05 -0.36,0.18 -0.4,0.38 -0.04,0.17 0.08,0.33 0.2,0.45 -2.64,0.26 -3.28,4.78 -0.72,6.15 0.76,0.41 1.42,0.63 2.27,0.34 0.04,-0.01 0.07,-0.03 0.11,-0.05 0.02,0 0.04,-0 0.07,-0.01 0.62,-0.32 1.25,-0.6 1.87,-0.92 0,-0 0,-0 0,-0 0.87,0.79 1.77,1.55 2.7,2.27 0.05,0.04 0.11,0.03 0.14,-0 1.07,-0.51 2.03,-1.17 3.1,-1.67 0.04,-0.02 0.07,-0.07 0.07,-0.12 -0.03,-0.54 -0,-1.07 0,-1.61 0,-0 -0,-0 -0,-0zm-4.33 -3.7c0.23,-0.02 0.4,0.16 0.56,0.33 -0.54,0.23 -1.12,0.37 -1.66,0.59 -0.09,0.04 -0.35,0.2 -0.42,0.18 -0.08,-0.02 -0.24,-0.24 -0.35,-0.4 0.45,-0.21 0.92,-0.35 1.38,-0.52 0.15,-0.05 0.34,-0.17 0.49,-0.19zm-2.2 0.71c0,0 0,0 0,0 0.01,0.01 0.01,0.03 0.02,0.04 0.31,0.37 0.43,0.73 0.91,0.54 0.71,-0.27 1.44,-0.47 2.13,-0.79 0.08,-0.04 0.08,-0.16 0.03,-0.21 -0.36,-0.37 -0.52,-0.71 -1.01,-0.53 -0.67,0.25 -1.36,0.45 -2,0.76 -0,0 -0,0 -0.01,0 -0.01,0 -0.01,0.01 -0.02,0.01 -0.07,0.03 -0.08,0.1 -0.06,0.16 0,0.01 0,0.01 0.01,0.02zm-2.85 3.25c-0.7,-0.21 -0.91,-0.7 -0.87,-1.37 0.05,-0.67 0.22,-1.51 1.13,-1.36 0.68,0.14 0.99,0.78 0.98,1.42 -0.01,0.76 -0.32,1.59 -1.25,1.32zm0.34 -3c-0.93,-0.15 -1.33,0.47 -1.44,1.29 -0.13,0.94 0.07,1.65 1.03,1.97 1.89,0.64 2.21,-2.89 0.41,-3.26zm6.12 3.71c0.67,-0.35 1.36,-0.67 2.07,-0.95 0.16,-0.06 0.09,-0.33 -0.07,-0.26 -0.73,0.28 -1.44,0.61 -2.13,0.97 -0.16,0.08 -0.02,0.32 0.14,0.24zm-7.56 -4.35c-0.69,0.5 -0.97,1.27 -0.98,2.1 -0,0.18 0.27,0.18 0.27,0 0.01,-0.73 0.24,-1.42 0.85,-1.87 0.14,-0.1 0,-0.34 -0.14,-0.24zm0.48 0c0.18,0 0.18,-0.27 0,-0.27 -0.18,0 -0.18,0.27 0,0.27z"/>
  <circle class="fil1 str0" cx="8.26" cy="8.26" r="8.01"/>
 </g>
</svg>
