<?xml version="1.0" encoding="UTF-8"?>
<!DOCTYPE svg PUBLIC "-//W3C//DTD SVG 1.1//EN" "http://www.w3.org/Graphics/SVG/1.1/DTD/svg11.dtd">
<!-- Creator: CorelDRAW 2021 (64-Bit) -->
<svg xmlns="http://www.w3.org/2000/svg" xml:space="preserve" width="6.447mm" height="6.447mm" version="1.1" style="shape-rendering:geometricPrecision; text-rendering:geometricPrecision; image-rendering:optimizeQuality; fill-rule:evenodd; clip-rule:evenodd"
viewBox="0 0 19.07 19.07"
 xmlns:xlink="http://www.w3.org/1999/xlink"
 xmlns:xodm="http://www.corel.com/coreldraw/odm/2003">
 <defs>
  <style type="text/css">
   <![CDATA[
    .str0 {stroke:#FEFEFE;stroke-width:0.59;stroke-linecap:round;stroke-linejoin:round;stroke-miterlimit:22.9256}
    .fil1 {fill:none}
    .fil0 {fill:#FEFEFE;fill-rule:nonzero}
   ]]>
  </style>
 </defs>
 <g id="Capa_x0020_1">
  <metadata id="CorelCorpID_0Corel-Layer"/>
  <path class="fil0" d="M12.58 11.95c-1.09,1.02 -2.14,2.24 -2.64,3.67 -0.14,0.39 -0.23,1 -0.76,0.53 -0.17,-0.15 -0.27,-0.56 -0.37,-0.76 -0.36,-0.71 -0.77,-1.4 -1.22,-2.06 -0.55,-0.81 -1.19,-1.64 -1.99,-2.22 2.7,0.33 5.36,0.43 8.02,-0.1 -0.38,0.31 -0.73,0.65 -1.04,0.94zm2.51 -1.35c-0.63,-1.02 -1.38,-2.05 -1.69,-3.22 -0.42,-1.59 -0.1,-3.41 0.71,-4.83 0.13,-0.23 -0.23,-0.44 -0.36,-0.21 -1.27,2.23 -1.18,4.77 0.06,6.96 0.21,0.37 0.44,0.72 0.66,1.08 -3.24,0.83 -6.45,0.66 -9.73,0.2 0.39,-0.67 0.79,-1.33 1.03,-2.07 0.66,-2.05 0.48,-4.24 -0.41,-6.16 -0.11,-0.24 -0.47,-0.03 -0.36,0.21 1.16,2.5 0.87,5.29 -0.5,7.67 -1.1,1.91 -2.04,4.27 -1.15,6.47 0.1,0.24 0.5,0.14 0.4,-0.11 -0.55,-1.37 -0.32,-3.02 0.18,-4.38 0.16,-0.43 0.37,-0.84 0.6,-1.24 1.6,0.62 2.67,2.39 3.48,3.8 0.3,0.53 0.51,1.16 0.85,1.66 0.28,0.41 0.62,0.37 1.13,0.28 0.06,-0.01 0.13,-0.08 0.14,-0.14 0.28,-1.57 1.29,-2.88 2.39,-3.98 0.6,-0.6 1.38,-1.45 2.2,-1.81 0.25,0.43 0.47,0.87 0.6,1.35 0.38,1.4 0.44,2.98 0.13,4.4 -0.06,0.26 0.34,0.37 0.4,0.11 0.43,-1.92 0.31,-4.33 -0.75,-6.04zm-5.56 -1.83c0.27,0 0.27,-0.41 0,-0.41 -0.27,0 -0.27,0.41 0,0.41zm-5.05 3.72c-0.39,0.66 -0.57,1.4 -0.51,2.17 0.02,0.26 0.43,0.27 0.41,0 -0.05,-0.7 0.1,-1.36 0.46,-1.96 0.14,-0.23 -0.22,-0.44 -0.36,-0.21zm-0.48 2.87c0,0 0,0.01 0,0.01 0,0.27 0.42,0.27 0.42,0 0,-0 0,-0.01 0,-0.01 0,-0.27 -0.42,-0.27 -0.42,0z"/>
  <circle class="fil1 str0" cx="9.54" cy="9.54" r="9.24"/>
 </g>
</svg>
