<?xml version="1.0" encoding="UTF-8"?>
<!DOCTYPE svg PUBLIC "-//W3C//DTD SVG 1.1//EN" "http://www.w3.org/Graphics/SVG/1.1/DTD/svg11.dtd">
<!-- Creator: CorelDRAW 2021 (64-Bit) -->
<svg xmlns="http://www.w3.org/2000/svg" xml:space="preserve" width="6.447mm" height="6.447mm" version="1.1" style="shape-rendering:geometricPrecision; text-rendering:geometricPrecision; image-rendering:optimizeQuality; fill-rule:evenodd; clip-rule:evenodd"
viewBox="0 0 66.06 66.06"
 xmlns:xlink="http://www.w3.org/1999/xlink"
 xmlns:xodm="http://www.corel.com/coreldraw/odm/2003">
 <defs>
  <style type="text/css">
   <![CDATA[
    .str1 {stroke:#FEFEFE;stroke-width:2.05;stroke-miterlimit:22.9256}
    .str0 {stroke:#FEFEFE;stroke-width:0.72;stroke-linecap:round;stroke-linejoin:round;stroke-miterlimit:22.9256}
    .fil1 {fill:none}
    .fil0 {fill:#FEFEFE;fill-rule:nonzero}
   ]]>
  </style>
 </defs>
 <g id="Capa_x0020_1">
  <metadata id="CorelCorpID_0Corel-Layer"/>
  <g id="_2202577338944">
   <path class="fil0 str0" d="M48.82 44.65c-5.77,3.37 -12.85,4.49 -19.44,3.92 -3.36,-0.29 -6.68,-1.06 -9.83,-2.27 -1.72,-0.66 -3.38,-1.47 -4.96,-2.41 -2.01,-1.19 -1.05,-3.65 -0.57,-5.62 0.91,-3.81 2.49,-7.43 4.26,-10.92 1.72,-3.41 3.47,-6.88 5.91,-9.84 0.7,-0.85 1.37,-1.72 2.37,-2.22 1.25,-0.62 2.84,-0.6 4.22,-0.69 1.25,-0.08 2.52,-0.27 3.6,0.58 0.91,0.72 1.59,2.05 1.87,3.15 0.37,1.43 0.26,3.47 -1.04,4.43 -0.92,0.68 -2.19,0.7 -3.31,0.8 -0.3,0.03 -0.72,0.12 -1.02,0.09 -0.89,-0.11 -2.46,-1.09 -1.66,-2.21 0.34,-0.48 1.78,-0.71 2.33,-0.69 0.64,0.02 0.64,-0.97 0,-0.99 -1.19,-0.03 -3.73,0.67 -3.89,2.17 -0.02,0.13 -0.02,0.25 -0.01,0.37 -1.04,2.23 -1.22,4.76 -1.33,7.19 -0.06,1.32 0.02,2.68 -0.07,3.99 -0.18,2.46 -1.89,4.42 -3.58,6.12 -0.45,0.45 0.25,1.15 0.7,0.7 1.64,-1.65 2.98,-3.26 3.55,-5.29 0.04,-0.03 0.08,-0.05 0.12,-0.09 2.35,-2.81 5.69,-4.11 9.22,-2.71 1.31,0.52 2.79,1.54 3.27,2.94 0.15,0.42 0.86,0.52 0.95,0 1.04,-5.6 9.57,-4.06 11.56,0.06 1.79,3.7 0.15,7.45 -3.22,9.42zm3.3 -11.23c-2.84,-3.56 -10.31,-4.17 -12.24,0.34 -0.85,-1.21 -2.22,-2.1 -3.56,-2.57 -3.44,-1.21 -6.68,-0.25 -9.14,2.14 0.01,-0.17 0.03,-0.33 0.03,-0.51 0,-2.99 -0.09,-6.46 1,-9.33 0.81,0.81 2.3,1.15 3.24,1.11 2.42,-0.11 4.7,-0.31 5.67,-2.87 0.91,-2.41 -0.14,-5.19 -1.82,-6.98 -1.18,-1.26 -1.62,-1.3 -3.33,-1.2 -1.68,0.1 -3.38,0.19 -5.04,0.48 -2.78,0.5 -5.09,4.77 -6.43,7.05 -3.98,6.8 -7.65,14.27 -8.24,22.23 -0.01,0.18 0.11,0.34 0.24,0.43 10.54,6.94 26.11,8.46 37.13,1.58 4.01,-2.51 5.64,-7.93 2.47,-11.9z"/>
   <path class="fil0 str0" d="M38.06 40.26c-1.58,1.4 -3.02,1.99 -5.14,1.86 -2.02,-0.13 -3.88,-0.41 -5.58,-1.56 -0.53,-0.36 -1.02,0.5 -0.5,0.85 2.01,1.36 4.34,1.66 6.72,1.73 2.1,0.06 3.63,-0.81 5.2,-2.19 0.48,-0.42 -0.22,-1.12 -0.7,-0.7z"/>
   <path class="fil0 str0" d="M28.82 36.47c0.45,-0.89 1.3,-1.4 2.12,-1.9 0.55,-0.33 0.05,-1.18 -0.5,-0.85 -0.97,0.58 -1.95,1.22 -2.48,2.26 -0.29,0.57 0.57,1.07 0.85,0.5z"/>
   <path class="fil0 str0" d="M32.03 34.05c0.64,0 0.64,-0.99 0,-0.99 -0.64,0 -0.64,0.99 0,0.99z"/>
  </g>
  <circle class="fil1 str1" cx="33.03" cy="33.03" r="32"/>
 </g>
</svg>
