<?xml version="1.0" encoding="UTF-8"?>
<!DOCTYPE svg PUBLIC "-//W3C//DTD SVG 1.1//EN" "http://www.w3.org/Graphics/SVG/1.1/DTD/svg11.dtd">
<!-- Creator: CorelDRAW 2021 (64-Bit) -->
<svg xmlns="http://www.w3.org/2000/svg" xml:space="preserve" width="16.296mm" height="5.7223mm" version="1.1" style="shape-rendering:geometricPrecision; text-rendering:geometricPrecision; image-rendering:optimizeQuality; fill-rule:evenodd; clip-rule:evenodd"
viewBox="0 0 405.45 142.37"
 xmlns:xlink="http://www.w3.org/1999/xlink"
 xmlns:xodm="http://www.corel.com/coreldraw/odm/2003">
 <defs>
  <style type="text/css">
   <![CDATA[
    .fil0 {fill:#FEFEFE;fill-rule:nonzero;fill-opacity:0.200000}
   ]]>
  </style>
 </defs>
 <g id="Capa_x0020_1">
  <metadata id="CorelCorpID_0Corel-Layer"/>
  <polygon class="fil0" points="334.26,142.37 405.45,71.19 334.26,0 319.81,14.45 376.55,71.19 319.81,127.93 "/>
  <polygon class="fil0" points="270.3,142.37 341.49,71.19 270.3,0 255.85,14.45 312.59,71.19 255.85,127.93 "/>
  <polygon class="fil0" points="206.34,142.37 277.53,71.19 206.34,0 191.89,14.45 248.63,71.19 191.89,127.93 "/>
  <polygon class="fil0" points="142.38,142.37 213.56,71.19 142.38,0 127.93,14.45 184.67,71.19 127.93,127.93 "/>
  <polygon class="fil0" points="78.41,142.37 149.6,71.19 78.41,0 63.97,14.45 120.7,71.19 63.97,127.93 "/>
  <polygon class="fil0" points="14.45,142.37 85.64,71.19 14.45,0 -0,14.45 56.74,71.19 -0,127.93 "/>
 </g>
</svg>
