<?xml version="1.0" encoding="UTF-8"?>
<!DOCTYPE svg PUBLIC "-//W3C//DTD SVG 1.1//EN" "http://www.w3.org/Graphics/SVG/1.1/DTD/svg11.dtd">
<!-- Creator: CorelDRAW 2021 (64-Bit) -->
<svg xmlns="http://www.w3.org/2000/svg" xml:space="preserve" width="8.2191mm" height="23.4062mm" version="1.1" style="shape-rendering:geometricPrecision; text-rendering:geometricPrecision; image-rendering:optimizeQuality; fill-rule:evenodd; clip-rule:evenodd"
viewBox="0 0 305.79 870.82"
 xmlns:xlink="http://www.w3.org/1999/xlink"
 xmlns:xodm="http://www.corel.com/coreldraw/odm/2003">
 <defs>
  <style type="text/css">
   <![CDATA[
    .fil0 {fill:#903031;fill-rule:nonzero}
   ]]>
  </style>
 </defs>
 <g id="Capa_x0020_1">
  <metadata id="CorelCorpID_0Corel-Layer"/>
  <polygon class="fil0" points="-0,717.92 152.9,870.82 305.79,717.92 274.76,686.89 152.9,808.75 31.03,686.89 "/>
  <polygon class="fil0" points="-0,580.54 152.9,733.44 305.79,580.54 274.76,549.51 152.9,671.37 31.03,549.51 "/>
  <polygon class="fil0" points="-0,443.17 152.9,596.06 305.79,443.17 274.76,412.13 152.9,533.99 31.03,412.13 "/>
  <polygon class="fil0" points="-0,305.79 152.9,458.68 305.79,305.79 274.76,274.76 152.9,396.62 31.03,274.76 "/>
  <polygon class="fil0" points="-0,168.41 152.9,321.3 305.79,168.41 274.76,137.38 152.9,259.24 31.03,137.38 "/>
  <polygon class="fil0" points="-0,31.04 152.9,183.93 305.79,31.04 274.76,0 152.9,121.87 31.03,0 "/>
 </g>
</svg>
