<?xml version="1.0" encoding="UTF-8"?>
<!DOCTYPE svg PUBLIC "-//W3C//DTD SVG 1.1//EN" "http://www.w3.org/Graphics/SVG/1.1/DTD/svg11.dtd">
<!-- Creator: CorelDRAW 2021 (64-Bit) -->
<svg xmlns="http://www.w3.org/2000/svg" xml:space="preserve" width="11.3113mm" height="23.5025mm" version="1.1" style="shape-rendering:geometricPrecision; text-rendering:geometricPrecision; image-rendering:optimizeQuality; fill-rule:evenodd; clip-rule:evenodd"
viewBox="0 0 148.55 308.66"
 xmlns:xlink="http://www.w3.org/1999/xlink"
 xmlns:xodm="http://www.corel.com/coreldraw/odm/2003">
 <defs>
  <style type="text/css">
   <![CDATA[
    .fil0 {fill:white;fill-rule:nonzero}
   ]]>
  </style>
 </defs>
 <g id="Capa_x0020_1">
  <metadata id="CorelCorpID_0Corel-Layer"/>
  <g id="_2239975684688">
   <path class="fil0" d="M-0 302.74c0.59,0.63 0.96,1.48 0.96,2.41 0,0.93 -0.36,1.78 -0.96,2.41l0 -4.82z"/>
   <path class="fil0" d="M-0 242.41c0.59,0.63 0.96,1.48 0.96,2.41 0,0.94 -0.36,1.78 -0.96,2.41l0 -4.82z"/>
   <path class="fil0" d="M-0 182.08c0.59,0.63 0.96,1.48 0.96,2.41 0,0.93 -0.36,1.78 -0.96,2.41l0 -4.82z"/>
   <path class="fil0" d="M-0 121.76c0.59,0.63 0.96,1.48 0.96,2.41 0,0.94 -0.36,1.78 -0.96,2.41l0 -4.82z"/>
   <path class="fil0" d="M-0 61.43c0.59,0.63 0.96,1.48 0.96,2.41 0,0.93 -0.36,1.78 -0.96,2.41l0 -4.82z"/>
   <path class="fil0" d="M-0 1.1c0.59,0.63 0.96,1.48 0.96,2.41 0,0.94 -0.36,1.78 -0.96,2.41l0 -4.82z"/>
   <path class="fil0" d="M46.64 301.64c1.94,0 3.51,1.57 3.51,3.52 0,1.94 -1.57,3.51 -3.51,3.51 -1.94,0 -3.51,-1.57 -3.51,-3.51 0,-1.94 1.57,-3.52 3.51,-3.52z"/>
   <path class="fil0" d="M46.64 241.31c1.94,0 3.51,1.57 3.51,3.51 0,1.94 -1.57,3.51 -3.51,3.51 -1.94,0 -3.51,-1.57 -3.51,-3.51 0,-1.94 1.57,-3.51 3.51,-3.51z"/>
   <path class="fil0" d="M46.64 180.98c1.94,0 3.51,1.57 3.51,3.51 0,1.94 -1.57,3.51 -3.51,3.51 -1.94,0 -3.51,-1.57 -3.51,-3.51 0,-1.94 1.57,-3.51 3.51,-3.51z"/>
   <path class="fil0" d="M46.64 120.65c1.94,0 3.51,1.57 3.51,3.51 0,1.94 -1.57,3.52 -3.51,3.52 -1.94,0 -3.51,-1.57 -3.51,-3.52 0,-1.94 1.57,-3.51 3.51,-3.51z"/>
   <path class="fil0" d="M46.64 60.33c1.94,0 3.51,1.57 3.51,3.52 0,1.94 -1.57,3.51 -3.51,3.51 -1.94,0 -3.51,-1.57 -3.51,-3.51 0,-1.94 1.57,-3.52 3.51,-3.52z"/>
   <path class="fil0" d="M46.64 0c1.94,0 3.51,1.57 3.51,3.51 0,1.94 -1.57,3.52 -3.51,3.52 -1.94,0 -3.51,-1.57 -3.51,-3.52 0,-1.94 1.57,-3.51 3.51,-3.51z"/>
   <path class="fil0" d="M95.84 301.64c1.94,0 3.51,1.57 3.51,3.52 0,1.94 -1.57,3.51 -3.51,3.51 -1.94,0 -3.51,-1.57 -3.51,-3.51 0,-1.94 1.57,-3.52 3.51,-3.52z"/>
   <path class="fil0" d="M95.84 241.31c1.94,0 3.51,1.57 3.51,3.51 0,1.94 -1.57,3.51 -3.51,3.51 -1.94,0 -3.51,-1.57 -3.51,-3.51 0,-1.94 1.57,-3.51 3.51,-3.51z"/>
   <path class="fil0" d="M95.84 180.98c1.94,0 3.51,1.57 3.51,3.51 0,1.94 -1.57,3.51 -3.51,3.51 -1.94,0 -3.51,-1.57 -3.51,-3.51 0,-1.94 1.57,-3.51 3.51,-3.51z"/>
   <path class="fil0" d="M95.84 120.65c1.94,0 3.51,1.57 3.51,3.51 0,1.94 -1.57,3.52 -3.51,3.52 -1.94,0 -3.51,-1.57 -3.51,-3.52 0,-1.94 1.57,-3.51 3.51,-3.51z"/>
   <path class="fil0" d="M95.84 60.33c1.94,0 3.51,1.57 3.51,3.52 0,1.94 -1.57,3.51 -3.51,3.51 -1.94,0 -3.51,-1.57 -3.51,-3.51 0,-1.94 1.57,-3.52 3.51,-3.52z"/>
   <path class="fil0" d="M95.84 0c1.94,0 3.51,1.57 3.51,3.51 0,1.94 -1.57,3.52 -3.51,3.52 -1.94,0 -3.51,-1.57 -3.51,-3.52 0,-1.94 1.57,-3.51 3.51,-3.51z"/>
   <path class="fil0" d="M145.04 301.64c1.94,0 3.51,1.57 3.51,3.52 0,1.94 -1.57,3.51 -3.51,3.51 -1.94,0 -3.51,-1.57 -3.51,-3.51 0,-1.94 1.57,-3.52 3.51,-3.52z"/>
   <path class="fil0" d="M145.04 241.31c1.94,0 3.51,1.57 3.51,3.51 0,1.94 -1.57,3.51 -3.51,3.51 -1.94,0 -3.51,-1.57 -3.51,-3.51 0,-1.94 1.57,-3.51 3.51,-3.51z"/>
   <path class="fil0" d="M145.04 180.98c1.94,0 3.51,1.57 3.51,3.51 0,1.94 -1.57,3.51 -3.51,3.51 -1.94,0 -3.51,-1.57 -3.51,-3.51 0,-1.94 1.57,-3.51 3.51,-3.51z"/>
   <path class="fil0" d="M145.04 120.65c1.94,0 3.51,1.57 3.51,3.51 0,1.94 -1.57,3.52 -3.51,3.52 -1.94,0 -3.51,-1.57 -3.51,-3.52 0,-1.94 1.57,-3.51 3.51,-3.51z"/>
   <path class="fil0" d="M145.04 60.33c1.94,0 3.51,1.57 3.51,3.52 0,1.94 -1.57,3.51 -3.51,3.51 -1.94,0 -3.51,-1.57 -3.51,-3.51 0,-1.94 1.57,-3.52 3.51,-3.52z"/>
   <path class="fil0" d="M145.04 0c1.94,0 3.51,1.57 3.51,3.51 0,1.94 -1.57,3.52 -3.51,3.52 -1.94,0 -3.51,-1.57 -3.51,-3.52 0,-1.94 1.57,-3.51 3.51,-3.51z"/>
  </g>
 </g>
</svg>
