<?xml version="1.0" encoding="UTF-8"?>
<!DOCTYPE svg PUBLIC "-//W3C//DTD SVG 1.1//EN" "http://www.w3.org/Graphics/SVG/1.1/DTD/svg11.dtd">
<!-- Creator: CorelDRAW 2021 (64-Bit) -->
<svg xmlns="http://www.w3.org/2000/svg" xml:space="preserve" width="5.2696mm" height="12.0974mm" version="1.1" style="shape-rendering:geometricPrecision; text-rendering:geometricPrecision; image-rendering:optimizeQuality; fill-rule:evenodd; clip-rule:evenodd"
viewBox="0 0 39.02 89.58"
 xmlns:xlink="http://www.w3.org/1999/xlink"
 xmlns:xodm="http://www.corel.com/coreldraw/odm/2003">
 <defs>
  <style type="text/css">
   <![CDATA[
    .fil0 {fill:white;fill-rule:nonzero}
   ]]>
  </style>
 </defs>
 <g id="Capa_x0020_1">
  <metadata id="CorelCorpID_0Corel-Layer"/>
  <path class="fil0" d="M34.95 87.54c0,-1.12 0.91,-2.04 2.04,-2.04 1.12,0 2.04,0.91 2.04,2.04 0,1.12 -0.91,2.04 -2.04,2.04 -1.12,0 -2.04,-0.91 -2.04,-2.04z"/>
  <path class="fil0" d="M-0 87.54c0,-1.12 0.91,-2.04 2.04,-2.04 1.12,0 2.04,0.91 2.04,2.04 0,1.12 -0.91,2.04 -2.04,2.04 -1.12,0 -2.04,-0.91 -2.04,-2.04z"/>
  <path class="fil0" d="M34.95 59.04c0,-1.12 0.91,-2.03 2.04,-2.03 1.12,0 2.04,0.91 2.04,2.03 0,1.12 -0.91,2.04 -2.04,2.04 -1.12,0 -2.04,-0.91 -2.04,-2.04z"/>
  <path class="fil0" d="M-0 59.04c0,-1.12 0.91,-2.03 2.04,-2.03 1.12,0 2.04,0.91 2.04,2.03 0,1.12 -0.91,2.04 -2.04,2.04 -1.12,0 -2.04,-0.91 -2.04,-2.04z"/>
  <path class="fil0" d="M34.95 30.54c0,-1.12 0.91,-2.03 2.04,-2.03 1.12,0 2.04,0.91 2.04,2.03 0,1.12 -0.91,2.04 -2.04,2.04 -1.12,0 -2.04,-0.91 -2.04,-2.04z"/>
  <path class="fil0" d="M-0 30.54c0,-1.12 0.91,-2.03 2.04,-2.03 1.12,0 2.04,0.91 2.04,2.03 0,1.12 -0.91,2.04 -2.04,2.04 -1.12,0 -2.04,-0.91 -2.04,-2.04z"/>
  <path class="fil0" d="M34.95 2.04c0,-1.12 0.91,-2.04 2.04,-2.04 1.12,0 2.04,0.91 2.04,2.04 0,1.12 -0.91,2.03 -2.04,2.03 -1.12,0 -2.04,-0.91 -2.04,-2.03z"/>
  <path class="fil0" d="M-0 2.04c0,-1.12 0.91,-2.04 2.04,-2.04 1.12,0 2.04,0.91 2.04,2.04 0,1.12 -0.91,2.03 -2.04,2.03 -1.12,0 -2.04,-0.91 -2.04,-2.03z"/>
 </g>
</svg>
