<?xml version="1.0" encoding="UTF-8"?>
<!DOCTYPE svg PUBLIC "-//W3C//DTD SVG 1.1//EN" "http://www.w3.org/Graphics/SVG/1.1/DTD/svg11.dtd">
<!-- Creator: CorelDRAW 2021 (64-Bit) -->
<svg xmlns="http://www.w3.org/2000/svg" xml:space="preserve" width="4.4685mm" height="4.4683mm" version="1.1" style="shape-rendering:geometricPrecision; text-rendering:geometricPrecision; image-rendering:optimizeQuality; fill-rule:evenodd; clip-rule:evenodd"
viewBox="0 0 63.99 63.98"
 xmlns:xlink="http://www.w3.org/1999/xlink"
 xmlns:xodm="http://www.corel.com/coreldraw/odm/2003">
 <defs>
  <style type="text/css">
   <![CDATA[
    .fil0 {fill:#FEFEFE;fill-rule:nonzero}
   ]]>
  </style>
 </defs>
 <g id="Capa_x0020_1">
  <metadata id="CorelCorpID_0Corel-Layer"/>
  <path class="fil0" d="M31.99 63.98c-17.64,0 -31.99,-14.35 -31.99,-31.99 0,-17.64 14.35,-31.99 31.99,-31.99 17.64,0 31.99,14.35 31.99,31.99 0,17.64 -14.35,31.99 -31.99,31.99zm0 -61.16l0 0c-16.08,0 -29.16,13.08 -29.16,29.16 0,16.08 13.08,29.17 29.16,29.17 16.08,0 29.17,-13.08 29.17,-29.17 0,-16.08 -13.08,-29.16 -29.17,-29.16z"/>
  <path class="fil0" d="M28.19 47.12l6.09 0 0 -15.26 4.25 0 0.45 -5.11 -4.7 0c0,0 0,-1.91 0,-2.91 0,-1.2 0.24,-1.68 1.41,-1.68 0.94,0 3.29,0 3.29,0l0 -5.3c0,0 -3.48,0 -4.22,0 -4.53,0 -6.58,1.99 -6.58,5.82 0,3.33 0,4.07 0,4.07l-3.17 0 0 5.17 3.17 0 0 15.19z"/>
 </g>
</svg>
