<?xml version="1.0" encoding="UTF-8"?>
<!DOCTYPE svg PUBLIC "-//W3C//DTD SVG 1.1//EN" "http://www.w3.org/Graphics/SVG/1.1/DTD/svg11.dtd">
<!-- Creator: CorelDRAW 2021 (64-Bit) -->
<svg xmlns="http://www.w3.org/2000/svg" xml:space="preserve" width="30.9663mm" height="4.5988mm" version="1.1" style="shape-rendering:geometricPrecision; text-rendering:geometricPrecision; image-rendering:optimizeQuality; fill-rule:evenodd; clip-rule:evenodd"
viewBox="0 0 3101.41 460.59"
 xmlns:xlink="http://www.w3.org/1999/xlink"
 xmlns:xodm="http://www.corel.com/coreldraw/odm/2003">
 <defs>
  <style type="text/css">
   <![CDATA[
    .fil0 {fill:#FEFEFE}
   ]]>
  </style>
 </defs>
 <g id="Capa_x0020_1">
  <metadata id="CorelCorpID_0Corel-Layer"/>
  <path class="fil0" d="M484.3 175.92l-150.08 108.6 57.59 176.07 -149.66 -109.17 -149.65 109.17 57.59 -176.07 -150.08 -108.6 185.25 0.36 56.9 -176.28 56.91 176.28 185.25 -0.36zm654.28 0l-150.08 108.6 57.59 176.07 -149.66 -109.17 -149.65 109.17 57.59 -176.07 -150.08 -108.6 185.25 0.36 56.9 -176.28 56.91 176.28 185.25 -0.36zm654.28 0l-150.08 108.6 57.59 176.07 -149.66 -109.17 -149.65 109.17 57.59 -176.07 -150.08 -108.6 185.25 0.36 56.9 -176.28 56.91 176.28 185.25 -0.36zm654.28 0l-150.08 108.6 57.59 176.07 -149.66 -109.17 -149.65 109.17 57.59 -176.07 -150.08 -108.6 185.25 0.36 56.9 -176.28 56.91 176.28 185.25 -0.36zm654.28 0l-150.08 108.6 57.59 176.07 -149.66 -109.17 -149.65 109.17 57.59 -176.07 -150.08 -108.6 185.25 0.36 56.9 -176.28 56.91 176.28 185.25 -0.36z"/>
 </g>
</svg>
