<?xml version="1.0" encoding="UTF-8"?>
<!DOCTYPE svg PUBLIC "-//W3C//DTD SVG 1.1//EN" "http://www.w3.org/Graphics/SVG/1.1/DTD/svg11.dtd">
<!-- Creator: CorelDRAW 2021 (64-Bit) -->
<svg xmlns="http://www.w3.org/2000/svg" xml:space="preserve" width="6.9902mm" height="6.9902mm" version="1.1" style="shape-rendering:geometricPrecision; text-rendering:geometricPrecision; image-rendering:optimizeQuality; fill-rule:evenodd; clip-rule:evenodd"
viewBox="0 0 76.99 76.99"
 xmlns:xlink="http://www.w3.org/1999/xlink"
 xmlns:xodm="http://www.corel.com/coreldraw/odm/2003">
 <defs>
  <style type="text/css">
   <![CDATA[
    .str1 {stroke:#FEFEFE;stroke-width:2.2;stroke-miterlimit:22.9256}
    .str0 {stroke:#FEFEFE;stroke-width:0.78;stroke-linecap:round;stroke-linejoin:round;stroke-miterlimit:22.9256}
    .fil1 {fill:none}
    .fil0 {fill:#FEFEFE;fill-rule:nonzero}
   ]]>
  </style>
 </defs>
 <g id="Capa_x0020_1">
  <metadata id="CorelCorpID_0Corel-Layer"/>
  <path class="fil0 str0" d="M51.32 17.25c-5.21,-0.79 -10.83,1.97 -12.64,6.89 -0.9,-2.35 -2.79,-4.31 -4.98,-5.54 -3.68,-2.06 -7.29,-2.09 -11.22,-0.43 -3.04,1.28 -5.42,4.64 -6.68,7.57 -1.6,3.7 -0.79,8.22 0.2,11.97 0.18,0.7 1.27,0.4 1.08,-0.3 -1.65,-6.25 -1.38,-13.16 4.32,-17.34 2.68,-1.96 7.28,-2.66 10.26,-1.3 3.12,1.42 6.22,4.21 6.46,7.86 0.05,0.72 1.06,0.72 1.12,0 0.59,-6.67 8.77,-10.23 14.51,-7.52 6.1,2.89 8.67,11.07 6.66,17.27 -1.27,3.91 -6.29,2.94 -9.59,2.96 -1.88,0.01 -3.75,0.03 -5.63,0.01 -0.25,-0 -1.29,0 -1.26,0.02 -0.3,-0.18 -1.06,-2.42 -1.23,-2.88 -0.24,-0.61 -1.02,-0.48 -1.1,0.15 -0.37,2.9 -1.13,5.73 -1.73,8.59 -0.58,-4.81 -0.82,-9.65 -1.62,-14.43 -0.09,-0.55 -0.96,-0.52 -1.08,0 -0.77,3.34 -1.54,6.67 -2.31,10.01 -0.34,-1.55 -0.69,-3.1 -1.03,-4.65 -0.11,-0.52 -0.99,-0.55 -1.08,0 -0.12,0.77 -0.31,2.86 -0.83,3.23 -0.35,0.25 -1.69,-0.01 -2.16,-0.01 -2.03,-0.01 -4.07,-0.03 -6.1,-0.04 -2.22,-0.02 -5.71,-0.46 -5.61,2.87 0.05,1.75 1.67,3.51 2.7,4.81 1.5,1.87 3.28,3.49 5.17,4.96 3.87,3.03 8.19,5.38 12.38,7.94 0.17,0.11 0.39,0.1 0.57,0 7.58,-4.14 13.7,-9.5 19.08,-16.25 0.44,-0.56 -0.34,-1.36 -0.79,-0.79 -3.56,4.47 -7.5,8.7 -12.21,11.96 -1.5,1.04 -4.79,4.03 -6.66,3.77 -0.88,-0.12 -2.09,-1.24 -2.86,-1.7 -1.18,-0.7 -2.35,-1.4 -3.51,-2.12 -2.55,-1.6 -5.05,-3.31 -7.29,-5.32 -1.35,-1.21 -8.07,-7.64 -3.64,-9.01 1.67,-0.52 4.4,0.03 6.16,0.04 1.74,0.01 3.48,0.02 5.22,0.03 0.25,0 0.47,-0.18 0.54,-0.41 0.13,-0.43 0.25,-0.85 0.38,-1.27 0.35,1.55 0.69,3.1 1.04,4.66 0.12,0.54 0.96,0.53 1.08,0 0.73,-3.17 1.46,-6.34 2.2,-9.51 0.63,4.98 0.86,10 1.69,14.96 0.11,0.68 1.03,0.42 1.1,-0.15 0.43,-3.38 1.38,-6.65 2,-9.99 0.38,0.84 0.9,1.5 1.93,1.67 2.54,0.41 5.51,0 8.07,-0.01 2.36,-0.02 5.49,0.51 7.46,-1.08 1.71,-1.38 2.05,-3.82 2.23,-5.87 0.6,-6.92 -3.2,-15.12 -10.72,-16.26z"/>
  <circle class="fil1 str1" cx="38.5" cy="38.5" r="37.4"/>
 </g>
</svg>
