<?xml version="1.0" encoding="UTF-8"?>
<!DOCTYPE svg PUBLIC "-//W3C//DTD SVG 1.1//EN" "http://www.w3.org/Graphics/SVG/1.1/DTD/svg11.dtd">
<!-- Creator: CorelDRAW 2021 (64-Bit) -->
<svg xmlns="http://www.w3.org/2000/svg" xml:space="preserve" width="4.4685mm" height="4.4683mm" version="1.1" style="shape-rendering:geometricPrecision; text-rendering:geometricPrecision; image-rendering:optimizeQuality; fill-rule:evenodd; clip-rule:evenodd"
viewBox="0 0 101.04 101.03"
 xmlns:xlink="http://www.w3.org/1999/xlink"
 xmlns:xodm="http://www.corel.com/coreldraw/odm/2003">
 <defs>
  <style type="text/css">
   <![CDATA[
    .fil0 {fill:#FEFEFE;fill-rule:nonzero}
   ]]>
  </style>
 </defs>
 <g id="Capa_x0020_1">
  <metadata id="CorelCorpID_0Corel-Layer"/>
  <path class="fil0" d="M50.52 0c-27.86,0 -50.52,22.66 -50.52,50.51 0,27.85 22.66,50.52 50.52,50.52 27.86,0 50.52,-22.67 50.52,-50.52 0,-27.85 -22.66,-50.51 -50.52,-50.51zm0 96.57l0 0c-25.39,0 -46.05,-20.66 -46.05,-46.05 0,-25.39 20.66,-46.05 46.05,-46.05 25.39,0 46.05,20.66 46.05,46.05 0,25.39 -20.66,46.05 -46.05,46.05z"/>
  <path class="fil0" d="M72.14 37.11c-0.58,-1.5 -1.36,-2.77 -2.62,-4.03 -1.27,-1.27 -2.53,-2.05 -4.03,-2.63 -1.45,-0.56 -3.1,-0.95 -5.52,-1.06 -2.43,-0.12 -3.2,-0.14 -9.38,-0.14 -6.18,0 -6.95,0.03 -9.38,0.14 -2.42,0.11 -4.07,0.49 -5.52,1.06 -1.49,0.58 -2.76,1.36 -4.03,2.63 -1.26,1.26 -2.04,2.53 -2.62,4.03 -0.56,1.44 -0.95,3.1 -1.06,5.52 -0.11,2.43 -0.14,3.2 -0.14,9.38 0,6.18 0.02,6.96 0.14,9.38 0.11,2.42 0.5,4.08 1.06,5.52 0.58,1.49 1.36,2.76 2.62,4.03 1.27,1.27 2.53,2.04 4.03,2.63 1.45,0.56 3.1,0.95 5.52,1.06 2.43,0.11 3.2,0.14 9.38,0.14 6.18,0 6.95,-0.03 9.38,-0.14 2.42,-0.11 4.07,-0.5 5.52,-1.06 1.5,-0.58 2.76,-1.36 4.03,-2.63 1.26,-1.26 2.04,-2.53 2.62,-4.03 0.56,-1.45 0.95,-3.1 1.06,-5.52 0.11,-2.42 0.14,-3.2 0.14,-9.38 0,-6.18 -0.03,-6.95 -0.14,-9.38 -0.11,-2.42 -0.5,-4.07 -1.06,-5.52zm-3.04 24.09l0 0c-0.1,2.22 -0.47,3.43 -0.78,4.22 -0.41,1.06 -0.9,1.82 -1.7,2.62 -0.79,0.8 -1.55,1.29 -2.61,1.7 -0.8,0.31 -2.01,0.69 -4.23,0.78 -2.4,0.11 -3.12,0.14 -9.19,0.14 -6.08,0 -6.79,-0.03 -9.19,-0.14 -2.22,-0.1 -3.42,-0.47 -4.22,-0.78 -1.06,-0.41 -1.82,-0.9 -2.62,-1.7 -0.8,-0.8 -1.29,-1.55 -1.7,-2.62 -0.31,-0.8 -0.68,-2 -0.78,-4.22 -0.11,-2.4 -0.13,-3.12 -0.13,-9.19 0,-6.07 0.02,-6.79 0.13,-9.19 0.1,-2.22 0.47,-3.42 0.78,-4.23 0.41,-1.06 0.9,-1.82 1.7,-2.61 0.8,-0.8 1.56,-1.29 2.62,-1.7 0.8,-0.31 2.01,-0.68 4.22,-0.78 2.4,-0.11 3.12,-0.13 9.19,-0.13 6.07,0 6.79,0.02 9.19,0.13 2.22,0.1 3.42,0.47 4.23,0.78 1.06,0.41 1.82,0.91 2.61,1.7 0.8,0.8 1.29,1.55 1.7,2.61 0.31,0.8 0.68,2.01 0.78,4.23 0.11,2.4 0.13,3.12 0.13,9.19 0,6.07 -0.02,6.79 -0.13,9.19z"/>
  <path class="fil0" d="M50.59 40.33c-6.45,0 -11.68,5.23 -11.68,11.68 0,6.45 5.23,11.69 11.68,11.69 6.45,0 11.68,-5.23 11.68,-11.69 0,-6.45 -5.23,-11.68 -11.68,-11.68zm0 19.26l0 0c-4.19,0 -7.58,-3.4 -7.58,-7.59 0,-4.19 3.39,-7.58 7.58,-7.58 4.19,0 7.58,3.39 7.58,7.58 0,4.19 -3.39,7.59 -7.58,7.59z"/>
  <path class="fil0" d="M62.73 37.13c-1.51,0 -2.73,1.22 -2.73,2.73 0,1.51 1.22,2.73 2.73,2.73 1.51,0 2.73,-1.23 2.73,-2.73 0,-1.51 -1.22,-2.73 -2.73,-2.73z"/>
 </g>
</svg>
