<?xml version="1.0" encoding="UTF-8"?>
<!DOCTYPE svg PUBLIC "-//W3C//DTD SVG 1.1//EN" "http://www.w3.org/Graphics/SVG/1.1/DTD/svg11.dtd">
<!-- Creator: CorelDRAW 2021 (64-Bit) -->
<svg xmlns="http://www.w3.org/2000/svg" xml:space="preserve" width="38.3051mm" height="35.3792mm" version="1.1" style="shape-rendering:geometricPrecision; text-rendering:geometricPrecision; image-rendering:optimizeQuality; fill-rule:evenodd; clip-rule:evenodd"
viewBox="0 0 838.53 774.48"
 xmlns:xlink="http://www.w3.org/1999/xlink"
 xmlns:xodm="http://www.corel.com/coreldraw/odm/2003">
 <defs>
  <style type="text/css">
   <![CDATA[
    .fil0 {fill:#923032;fill-rule:nonzero}
   ]]>
  </style>
 </defs>
 <g id="Capa_x0020_1">
  <metadata id="CorelCorpID_0Corel-Layer"/>
  <path class="fil0" d="M-0 247.07c21.61,-9.22 44.21,-16.99 67.77,-22.91 123.49,-31.04 218.26,-70.19 285.73,-116.04 48.25,-32.79 82.52,-69 103.34,-108.12l1.43 0c-20.89,39.52 -55.39,76.08 -104.06,109.15 -67.59,45.93 -162.5,85.14 -286.13,116.22 -23.67,5.95 -46.37,13.78 -68.07,23.07l0 -1.37zm415.58 -247.07l1.51 0c-21.16,31.44 -51.49,60.83 -91.31,87.89 -67.59,45.93 -162.49,85.14 -286.13,116.22 -13.55,3.4 -26.75,7.46 -39.66,12.01l0 -1.33c12.81,-4.51 25.91,-8.52 39.35,-11.9 123.49,-31.04 218.26,-70.19 285.73,-116.04 39.38,-26.76 69.46,-55.81 90.5,-86.85zm21.02 0l1.47 0c-21.24,35.46 -53.79,68.43 -98.07,98.52 -67.59,45.93 -162.49,85.14 -286.13,116.22 -18.56,4.67 -36.51,10.51 -53.86,17.28l0 -1.34c17.26,-6.71 35.11,-12.51 53.56,-17.15 123.49,-31.04 218.26,-70.19 285.73,-116.04 43.85,-29.8 76.15,-62.42 97.31,-97.48zm39.75 0l1.39 0c-20.11,43.61 -56.31,83.76 -109.31,119.78 -67.59,45.93 -162.5,85.14 -286.13,116.22 -28.9,7.26 -56.33,17.34 -82.28,29.45l0 -1.38c25.87,-12.03 53.2,-22.05 81.98,-29.28 123.49,-31.04 218.26,-70.19 285.73,-116.04 52.59,-35.74 88.57,-75.54 108.64,-118.75zm18.8 0l1.35 0c-18.92,47.73 -56.59,91.49 -113.87,130.41 -67.59,45.93 -162.5,85.14 -286.13,116.22 -34.23,8.6 -66.41,21.14 -96.49,36.34l0 -1.4c30,-15.12 62.08,-27.58 96.19,-36.16 123.49,-31.05 218.26,-70.19 285.73,-116.04 56.88,-38.65 94.33,-82.06 113.23,-129.38zm18.12 0l1.32 0c-17.35,51.87 -56.25,99.25 -117.75,141.04 -67.59,45.93 -162.5,85.14 -286.13,116.22 -39.67,9.97 -76.61,25.21 -110.7,43.79l0 -1.43c34.01,-18.48 70.85,-33.63 110.4,-43.57 123.49,-31.04 218.26,-70.19 285.73,-116.04 61.11,-41.53 99.8,-88.55 117.14,-140.01zm17.47 0l1.3 0c-15.41,56.05 -55.31,107.04 -120.99,151.67 -67.59,45.93 -162.5,85.14 -286.13,116.22 -45.25,11.38 -86.94,29.61 -124.91,51.84l0 -1.45c37.9,-22.11 79.48,-40.26 124.61,-51.61 123.49,-31.04 218.26,-70.19 285.73,-116.04 65.3,-44.37 105,-95.02 120.4,-150.64zm16.84 0l1.29 0c-13.11,60.24 -53.8,114.87 -123.61,162.31 -67.59,45.93 -162.5,85.14 -286.13,116.22 -50.96,12.81 -97.43,34.29 -139.12,60.41l0 -1.46c41.63,-25.99 87.98,-47.38 138.81,-60.16 123.49,-31.04 218.26,-70.19 285.73,-116.04 69.43,-47.18 109.93,-101.46 123.03,-161.27zm16.49 0l1.28 0c-0.74,3.54 -1.49,7.06 -2.25,10.54 -13.09,60.28 -53.78,114.94 -123.63,162.4 -67.59,45.93 -162.49,85.14 -286.13,116.22 -56.84,14.29 -108.06,39.38 -153.33,69.63l0 -1.5c45.21,-30.12 96.32,-55.1 153.02,-69.35 123.49,-31.04 218.26,-70.19 285.73,-116.04 69.57,-47.28 110.09,-101.67 123.11,-161.63 0.74,-3.43 1.48,-6.85 2.2,-10.27zm16.42 0l1.28 0c-1.47,7.14 -2.94,14.22 -4.45,21.17 -13.09,60.28 -53.78,114.94 -123.63,162.4 -67.59,45.93 -162.49,85.14 -286.13,116.22 -62.86,15.8 -118.88,44.8 -167.54,79.4l0 -1.53c48.61,-34.46 104.52,-63.33 167.23,-79.09 123.49,-31.04 218.26,-70.19 285.73,-116.04 69.57,-47.28 110.09,-101.67 123.11,-161.63 1.52,-6.99 2.97,-13.94 4.4,-20.91zm16.38 0l1.28 0c-2.19,10.75 -4.37,21.42 -6.62,31.8 -13.09,60.28 -53.79,114.94 -123.63,162.4 -67.59,45.93 -162.5,85.14 -286.13,116.22 -69.08,17.37 -129.88,50.68 -181.75,89.84l0 -1.56c51.83,-39.01 112.51,-72.17 181.44,-89.5 123.49,-31.04 218.26,-70.19 285.73,-116.04 69.57,-47.28 110.09,-101.67 123.11,-161.63 2.29,-10.54 4.43,-21.02 6.57,-31.54zm16.37 0l1.28 0 -1.41 6.95c-2.44,11.99 -4.86,23.92 -7.37,35.48 -13.09,60.28 -53.78,114.94 -123.63,162.4 -67.59,45.93 -162.5,85.14 -286.13,116.22 -75.49,18.98 -141.09,56.99 -195.96,100.88l0 -1.6c54.83,-43.72 120.32,-81.56 195.65,-100.5 123.49,-31.04 218.26,-70.2 285.73,-116.04 69.57,-47.28 110.09,-101.67 123.11,-161.63 2.57,-11.85 4.97,-23.62 7.37,-35.46l1.36 -6.71zm16.39 0l1.28 0c-1.21,5.87 -2.41,11.74 -3.59,17.58 -2.44,11.99 -4.86,23.92 -7.37,35.48 -13.09,60.28 -53.78,114.93 -123.63,162.4 -67.59,45.93 -162.5,85.14 -286.13,116.22 -82.12,20.64 -152.55,63.81 -210.16,112.56l0 -1.62c57.59,-48.58 127.91,-91.55 209.86,-112.15 123.49,-31.04 218.26,-70.19 285.73,-116.04 69.57,-47.28 110.09,-101.67 123.11,-161.63 2.57,-11.85 4.97,-23.62 7.37,-35.46 1.17,-5.77 2.35,-11.55 3.54,-17.34zm16.43 0l1.28 0c-1.99,9.43 -3.91,18.85 -5.82,28.22 -2.44,11.99 -4.86,23.91 -7.37,35.48 -13.09,60.28 -53.78,114.93 -123.63,162.4 -67.59,45.93 -162.5,85.14 -286.13,116.22 -89.01,22.37 -164.27,71.21 -224.37,124.93l0 -1.67c60.1,-53.55 135.25,-102.16 224.07,-124.48 123.49,-31.04 218.26,-70.19 285.73,-116.04 69.57,-47.28 110.09,-101.67 123.11,-161.63 2.57,-11.86 4.96,-23.63 7.37,-35.46 1.89,-9.29 3.79,-18.63 5.77,-27.97zm16.49 0l1.28 0c-2.84,12.97 -5.48,25.95 -8.11,38.85 -2.44,11.99 -4.86,23.91 -7.37,35.48 -13.09,60.28 -53.78,114.93 -123.63,162.4 -67.59,45.93 -162.5,85.14 -286.13,116.22 -96.17,24.17 -176.29,79.24 -238.58,137.99l0 -1.72c62.31,-58.57 142.32,-113.37 238.28,-137.49 123.49,-31.04 218.26,-70.19 285.73,-116.04 69.57,-47.28 110.09,-101.67 123.11,-161.63 2.57,-11.86 4.96,-23.62 7.37,-35.46 2.61,-12.82 5.23,-25.71 8.05,-38.6zm16.59 0l1.29 0c-3.78,16.51 -7.15,33.06 -10.49,49.48 -2.44,11.99 -4.86,23.91 -7.37,35.48 -13.09,60.28 -53.78,114.93 -123.63,162.4 -67.59,45.93 -162.49,85.14 -286.13,116.22 -103.65,26.05 -188.66,87.98 -252.79,151.74l0 -1.76c64.17,-63.58 149.07,-125.2 252.49,-151.2 123.49,-31.04 218.26,-70.19 285.73,-116.04 69.57,-47.28 110.09,-101.67 123.11,-161.63 2.57,-11.86 4.97,-23.62 7.37,-35.46 3.32,-16.34 6.67,-32.81 10.43,-49.23zm16.71 0l1.29 0c-4.84,20.02 -8.93,40.16 -12.99,60.11 -2.44,11.99 -4.86,23.91 -7.37,35.48 -13.09,60.28 -53.78,114.93 -123.63,162.4 -67.59,45.93 -162.49,85.14 -286.13,116.22 -111.49,28.03 -201.43,97.56 -267,166.24l0 -1.81c65.63,-68.51 155.45,-137.68 266.7,-165.65 123.49,-31.04 218.26,-70.19 285.73,-116.04 69.57,-47.28 110.09,-101.67 123.11,-161.63 2.57,-11.86 4.97,-23.63 7.37,-35.46 4.04,-19.87 8.12,-39.93 12.93,-59.87zm16.85 0l1.3 0c-6.03,23.5 -10.86,47.26 -15.63,70.75 -2.44,11.99 -4.86,23.91 -7.37,35.48 -13.09,60.28 -53.78,114.94 -123.63,162.4 -67.59,45.93 -162.5,85.14 -286.13,116.22 -119.78,30.11 -214.67,108.12 -281.21,181.51l0 -1.85c66.62,-73.24 161.4,-150.84 280.91,-180.87 123.49,-31.04 218.26,-70.19 285.73,-116.04 69.57,-47.28 110.09,-101.67 123.11,-161.63 2.57,-11.85 4.97,-23.62 7.37,-35.46 4.76,-23.41 9.57,-47.07 15.57,-70.5zm17.02 0l1.3 0c-7.39,26.95 -12.95,54.34 -18.45,81.38 -2.44,11.99 -4.86,23.91 -7.37,35.48 -13.09,60.28 -53.78,114.93 -123.63,162.4 -67.59,45.93 -162.5,85.14 -286.13,116.22 -128.57,32.32 -228.49,119.84 -295.42,197.59l0 -1.9c67.05,-77.62 166.84,-164.66 295.11,-196.9 123.49,-31.04 218.26,-70.19 285.73,-116.04 69.57,-47.28 110.09,-101.67 123.11,-161.63 2.57,-11.86 4.97,-23.62 7.37,-35.46 5.48,-26.95 11.03,-54.25 18.38,-81.13zm17.22 0l1.31 0c-8.94,30.36 -15.25,61.41 -21.47,92.01 -2.44,11.99 -4.86,23.91 -7.37,35.48 -13.09,60.28 -53.78,114.94 -123.63,162.4 -67.59,45.93 -162.5,85.14 -286.13,116.22 -138.02,34.69 -243.01,132.99 -309.63,214.53l0 -1.98c66.79,-81.46 171.67,-179.17 309.32,-213.77 123.49,-31.04 218.26,-70.19 285.73,-116.04 69.57,-47.28 110.09,-101.67 123.11,-161.63 2.57,-11.85 4.97,-23.62 7.37,-35.46 6.2,-30.51 12.5,-61.47 21.39,-91.76zm17.45 0l1.33 0c-10.71,33.72 -17.78,68.46 -24.72,102.64 -2.44,11.99 -4.86,23.91 -7.37,35.48 -13.09,60.28 -53.78,114.94 -123.63,162.4 -67.59,45.93 -162.5,85.14 -286.13,116.22 -148.27,37.27 -258.44,147.94 -323.84,232.39l0 -2.03c65.65,-84.44 175.67,-194.41 323.53,-231.58 123.49,-31.04 218.26,-70.19 285.73,-116.04 69.57,-47.28 110.09,-101.67 123.11,-161.63 2.57,-11.85 4.97,-23.62 7.37,-35.46 6.93,-34.09 13.97,-68.75 24.62,-102.4zm17.71 0l1.34 0c-12.73,37.02 -20.56,75.49 -28.24,113.27 -2.44,11.99 -4.86,23.91 -7.37,35.48 -13.09,60.29 -53.78,114.94 -123.63,162.4 -67.59,45.93 -162.5,85.14 -286.13,116.22 -159.61,40.12 -275.06,165.3 -338.05,251.26l0 -2.11c63.33,-86.07 178.63,-210.36 337.74,-250.36 123.49,-31.04 218.26,-70.19 285.73,-116.04 69.57,-47.28 110.09,-101.67 123.11,-161.63 2.57,-11.85 4.96,-23.62 7.37,-35.46 7.66,-37.7 15.47,-76.08 28.13,-113.03zm18.01 0l1.35 0c-15.04,40.25 -23.64,82.49 -32.05,123.9 -2.44,11.99 -4.86,23.92 -7.37,35.48 -13.09,60.28 -53.78,114.94 -123.63,162.4 -67.59,45.93 -162.5,85.14 -286.13,116.22 -172.46,43.35 -293.39,186.02 -352.26,271.2l0 -2.19c59.35,-85.5 180.1,-227.03 351.95,-270.23 123.49,-31.04 218.26,-70.19 285.73,-116.04 69.57,-47.28 110.09,-101.67 123.11,-161.63 2.57,-11.85 4.97,-23.62 7.37,-35.46 8.4,-41.33 16.98,-83.47 31.93,-123.66zm18.34 0l1.37 0c-17.67,43.4 -27.04,89.46 -36.2,134.53 -2.44,11.99 -4.86,23.92 -7.37,35.48 -13.09,60.28 -53.78,114.94 -123.63,162.4 -67.59,45.93 -162.49,85.14 -286.13,116.22 -187.78,47.21 -314.46,212.15 -366.46,292.43l0 -2.29c52.74,-81 179.21,-244.36 366.16,-291.35 123.49,-31.04 218.26,-70.2 285.73,-116.04 69.57,-47.28 110.09,-101.67 123.11,-161.63 2.57,-11.85 4.97,-23.62 7.37,-35.46 9.14,-44.99 18.5,-90.95 36.06,-134.29zm18.71 0l1.39 0c-20.65,46.47 -30.8,96.39 -40.72,145.17 -2.44,11.99 -4.86,23.91 -7.37,35.48 -13.09,60.28 -53.78,114.93 -123.63,162.4 -67.59,45.93 -162.49,85.14 -286.13,116.22 -208.05,52.3 -341.09,249.12 -380.67,315.21l0 -2.43c40.94,-67.89 173.71,-262.05 380.37,-314 123.49,-31.04 218.26,-70.19 285.73,-116.04 69.57,-47.28 110.09,-101.67 123.11,-161.63 2.57,-11.85 4.97,-23.62 7.37,-35.46 9.89,-48.69 20.03,-98.51 40.56,-144.92z"/>
 </g>
</svg>
