<?xml version="1.0" encoding="UTF-8"?>
<!DOCTYPE svg PUBLIC "-//W3C//DTD SVG 1.1//EN" "http://www.w3.org/Graphics/SVG/1.1/DTD/svg11.dtd">
<!-- Creator: CorelDRAW 2021 (64-Bit) -->
<svg xmlns="http://www.w3.org/2000/svg" xml:space="preserve" width="6.9902mm" height="6.9902mm" version="1.1" style="shape-rendering:geometricPrecision; text-rendering:geometricPrecision; image-rendering:optimizeQuality; fill-rule:evenodd; clip-rule:evenodd"
viewBox="0 0 76.99 76.99"
 xmlns:xlink="http://www.w3.org/1999/xlink"
 xmlns:xodm="http://www.corel.com/coreldraw/odm/2003">
 <defs>
  <style type="text/css">
   <![CDATA[
    .str1 {stroke:#FEFEFE;stroke-width:2.2;stroke-miterlimit:22.9256}
    .str0 {stroke:#FEFEFE;stroke-width:0.78;stroke-linecap:round;stroke-linejoin:round;stroke-miterlimit:22.9256}
    .fil1 {fill:none}
    .fil0 {fill:#FEFEFE;fill-rule:nonzero}
   ]]>
  </style>
 </defs>
 <g id="Capa_x0020_1">
  <metadata id="CorelCorpID_0Corel-Layer"/>
  <g id="_2202777990416">
   <path class="fil0 str0" d="M54.23 39.18c-0.22,5.02 -0.1,10.06 -0.16,15.08 -0.03,2.75 0.58,6.1 -2.98,6.3 -1.65,0.09 -3.33,0.18 -4.98,0.18 -3.65,0.01 -7.29,0.06 -10.94,0.14 -2.05,0.05 -4.11,0.03 -6.16,-0.01 -1.05,-0.02 -2.41,0.16 -3.44,-0.09 -3.09,-0.76 -2.89,-3.3 -2.93,-5.78 -0.03,-1.95 -0.06,-3.9 -0.09,-5.85 -0.05,-4.36 -0.08,-8.71 -0.06,-13.07 0.02,-2.41 0.05,-4.81 0.12,-7.21 0.04,-1.27 -0.36,-3.69 0.16,-4.86 0.84,-1.9 5.98,-1.53 8.68,-1.44 -0.32,0.41 -0.54,0.87 -0.65,1.43 -0.04,0.07 -0.06,0.15 -0.06,0.25 0,0.19 -0.01,0.42 -0.01,0.66 -1.39,-0.09 -3.76,-0.37 -4.73,0.19 -1.01,0.58 -0.65,1.9 -0.62,2.93 0.11,3.34 -0.09,6.67 -0.06,10.01 0.16,5.31 -0.11,10.61 0.27,15.92 0.09,1.24 -0.03,3.19 1.02,4.04 0.51,0.42 2.27,0.42 3,0.48 1.4,0.12 2.8,0.09 4.2,0.01 2.8,-0.16 5.62,-0.27 8.42,-0.22 2.28,0.04 4.53,-0.11 6.81,-0.2 0.81,-0.03 1.68,-0.02 2.1,-0.8 0.51,-0.97 0.12,-3.21 0.12,-4.24 0.05,-6.28 0.02,-12.55 -0.01,-18.83 -0.01,-2.46 0.07,-4.94 -0.06,-7.39 -0.13,-2.39 -3.21,-1.93 -5.19,-1.9 -0.03,-0.19 -0.07,-0.39 -0.11,-0.61 -0.14,-0.68 -0.45,-1.19 -0.86,-1.61 0.92,0.02 1.84,0.03 2.76,0.04 0.96,0.01 1.92,0.02 2.88,0.03 1.88,0.03 2.76,-0.22 3.35,1.7 1.36,4.44 0.43,10.14 0.23,14.7zm-8.14 -13.18c0.98,0.04 1.98,0.13 2.95,0.12 0.34,-0 1.12,0.12 1.06,0.03 0.15,0.22 0.02,1.05 0.02,1.3 0.03,1.94 0.04,3.87 0.05,5.81 0.03,5.53 0.05,11.07 0.03,16.6 -0.01,1.94 -0,3.89 -0.05,5.84 -0.01,0.19 0.09,1.14 -0.05,1.28 -0.48,0.47 -3.2,0.02 -3.95,0.09 -2.21,0.19 -4.5,0.36 -6.72,0.3 -2.52,-0.07 -4.97,0.12 -7.51,0.13 -1.56,0.01 -4.37,0.42 -5.01,-1.1 -0.39,-0.91 -0.27,-2.35 -0.32,-3.32 -0.29,-5.01 -0.06,-10.03 -0.22,-15.04 -0.02,-2.27 0.06,-4.53 0.08,-6.8 0.01,-0.91 -0.56,-4.07 -0.07,-4.85 0.43,-0.68 3.05,-0.5 4.32,-0.43 0.02,0.94 0.19,1.87 0.96,2.24 1.37,0.67 4.06,0.09 5.51,0.08 1.84,-0.02 3.69,0.03 5.53,-0.04 2.35,-0.08 3.4,-0.47 3.39,-2.25zm-10.22 -5.12c0.22,-0.1 0.29,-0.38 0.24,-0.6 -0.32,-1.53 -0.85,-3.22 1.09,-3.97 1.16,-0.45 3.19,-0.32 3.71,1.07 0.32,0.84 -0.2,2.02 -0.57,2.77 -0.1,0.2 -0.1,0.49 0.08,0.64 1.2,1.01 3.02,1.57 3.95,2.82 0.38,0.51 0.7,1.2 0.52,1.91 -0.48,1.99 -2.6,1.69 -4.23,1.71 -2.02,0.02 -4.03,0.07 -6.05,0.07 -0.51,0 -1.41,0.14 -1.88,-0.05 -1.12,-0.45 -0.78,-0.55 -0.93,-1.46 -0.08,-0.49 -0.01,-1.03 -0.01,-1.53 0.22,-1.73 2.67,-2.71 4.07,-3.37zm19.29 22.98c0.04,-6.55 0.98,-13.15 -0.13,-19.67 -0.45,-2.62 -1.36,-2.44 -3.91,-2.47 -2.49,-0.04 -4.99,-0.02 -7.49,-0.11 -0.02,-0 -0.04,0.01 -0.06,0.01 -0.38,-0.23 -0.78,-0.46 -1.18,-0.72 -1.29,-0.84 -0.6,-0.91 -0.41,-2.28 0.11,-0.83 0.06,-1.72 -0.44,-2.41 -1.16,-1.58 -4.24,-1.49 -5.69,-0.4 -1.66,1.25 -0.51,2.55 -0.9,4.05 -0.17,0.67 -1.59,1.1 -2.41,1.7 -0.03,-0 -0.05,-0.02 -0.09,-0.02 -2.77,0.06 -6.68,-0.55 -9.32,0.52 -1.18,0.48 -1.38,1.21 -1.48,2.4 -0.18,2.09 -0.1,4.26 -0.15,6.35 -0.12,5.6 -0.09,11.21 -0.03,16.81 0.02,2.15 0.06,4.3 0.09,6.45 0.03,1.66 -0.29,3.82 0.46,5.37 1.49,3.06 5.27,2.47 8.07,2.51 4.93,0.07 9.86,-0.2 14.79,-0.16 1.96,0.02 3.9,-0.19 5.85,-0.18 1.61,0.01 2.77,0.15 3.73,-1.35 1.21,-1.9 0.66,-4.84 0.68,-6.96 0.03,-3.15 -0.01,-6.3 0.01,-9.44z"/>
   <path class="fil0 str0" d="M39.43 33.27c-1.67,-0.1 -3.15,-0.23 -4.83,-0.05 -0.67,0.07 -0.68,1.13 0,1.06 1.68,-0.17 3.16,-0.06 4.83,0.05 0.79,0.05 1.5,-0.05 2.27,-0.14 1.18,-0.13 2.22,0.01 3.39,0.06 0.68,0.03 0.68,-1.03 0,-1.06 -0.83,-0.04 -1.65,-0.19 -2.47,-0.16 -1.07,0.04 -2.1,0.31 -3.18,0.24z"/>
   <path class="fil0 str0" d="M34.42 38.93c-0.68,0.02 -0.68,1.08 0,1.06 1.89,-0.06 3.77,-0.08 5.66,0.02 1.83,0.1 3.4,0 5.2,-0.12 0.68,-0.05 0.68,-1.1 0,-1.06 -3.61,0.24 -7.21,-0.02 -10.85,0.1z"/>
   <path class="fil0 str0" d="M45.39 44.6c-1.9,0.08 -3.8,0.13 -5.7,0.1 -1.92,-0.03 -3.68,-0.24 -5.54,0.25 -0.66,0.17 -0.38,1.19 0.28,1.02 1.95,-0.51 3.94,-0.22 5.94,-0.2 1.68,0.01 3.35,-0.04 5.02,-0.11 0.68,-0.03 0.68,-1.09 0,-1.06z"/>
   <path class="fil0 str0" d="M45.37 50.43c-3.73,0.49 -7.42,-0.68 -11.09,0 -0.67,0.12 -0.39,1.14 0.28,1.02 3.55,-0.66 7.19,0.51 10.81,0.04 0.67,-0.09 0.67,-1.15 0,-1.06z"/>
   <path class="fil0 str0" d="M32.4 33.37c-0.32,-0.04 -0.64,-0.05 -0.97,-0.03 -0.68,0.03 -0.68,1.09 0,1.06 0.33,-0.02 0.64,-0.01 0.97,0.03 0.68,0.08 0.67,-0.98 0,-1.06z"/>
   <path class="fil0 str0" d="M31.36 40.02c0.02,-0 0.49,-0.03 0.4,-0.14 -0,-0 -0,-0.01 -0,-0.01 0.23,0.18 0.6,0.21 0.83,-0.08 0,-0 0,-0.01 0.01,-0.01 0.15,-0.19 0.06,-0.48 -0.08,-0.64 -0.31,-0.35 -1.04,-0.23 -1.43,-0.13 -0.66,0.16 -0.38,1.19 0.28,1.02z"/>
   <path class="fil0 str0" d="M32.23 45.04c-0.32,-0 -0.63,-0.01 -0.95,-0.01 -0.68,-0.01 -0.68,1.05 0,1.06 0.32,0 0.63,0.01 0.95,0.01 0.68,0.01 0.68,-1.05 0,-1.06z"/>
   <path class="fil0 str0" d="M32.17 50.46c-0.29,0.01 -0.58,0.02 -0.87,0.03 -0.68,0.03 -0.68,1.08 0,1.06 0.29,-0.01 0.58,-0.02 0.87,-0.03 0.68,-0.03 0.68,-1.08 0,-1.06z"/>
   <path class="fil0 str0" d="M38.36 18.82c0.01,0 0.01,0 0.02,0 0.68,0 0.68,-1.06 0,-1.06 -0.01,0 -0.01,0 -0.02,0 -0.68,0 -0.68,1.06 0,1.06z"/>
   <path class="fil0 str0" d="M33.9 25.68c0.04,-0.46 -0.12,-0.95 0.16,-1.35 0.26,-0.37 0.63,-0.63 1.03,-0.82 0.61,-0.29 0.08,-1.21 -0.53,-0.91 -0.57,0.27 -1.07,0.68 -1.43,1.21 -0.4,0.6 -0.23,1.2 -0.29,1.87 -0.06,0.68 1,0.68 1.06,0z"/>
   <path class="fil0 str0" d="M36.14 22.9c0.68,0 0.68,-1.06 0,-1.06 -0.68,0 -0.68,1.06 0,1.06z"/>
  </g>
  <circle class="fil1 str1" cx="38.5" cy="38.5" r="37.4"/>
 </g>
</svg>
