<?xml version="1.0" encoding="UTF-8"?>
<!DOCTYPE svg PUBLIC "-//W3C//DTD SVG 1.1//EN" "http://www.w3.org/Graphics/SVG/1.1/DTD/svg11.dtd">
<!-- Creator: CorelDRAW 2021 (64-Bit) -->
<svg xmlns="http://www.w3.org/2000/svg" xml:space="preserve" width="4.4685mm" height="4.4683mm" version="1.1" style="shape-rendering:geometricPrecision; text-rendering:geometricPrecision; image-rendering:optimizeQuality; fill-rule:evenodd; clip-rule:evenodd"
viewBox="0 0 47.73 47.73"
 xmlns:xlink="http://www.w3.org/1999/xlink"
 xmlns:xodm="http://www.corel.com/coreldraw/odm/2003">
 <defs>
  <style type="text/css">
   <![CDATA[
    .fil0 {fill:#FEFEFE;fill-rule:nonzero}
   ]]>
  </style>
 </defs>
 <g id="Capa_x0020_1">
  <metadata id="CorelCorpID_0Corel-Layer"/>
  <path class="fil0" d="M23.87 47.73c-13.16,0 -23.87,-10.71 -23.87,-23.87 0,-13.16 10.71,-23.86 23.87,-23.86 13.16,0 23.87,10.7 23.87,23.86 0,13.16 -10.71,23.87 -23.87,23.87zm0 -45.62l0 0c-12,0 -21.76,9.76 -21.76,21.76 0,12 9.76,21.76 21.76,21.76 12,0 21.76,-9.76 21.76,-21.76 0,-12 -9.76,-21.76 -21.76,-21.76z"/>
  <path class="fil0" d="M30.12 16.54l-12.51 0c-2.45,0 -4.44,1.99 -4.44,4.44l0 6.26c0,2.45 1.99,4.44 4.44,4.44l12.51 0c2.46,0 4.45,-1.99 4.45,-4.44l0 -6.26c0,-2.45 -1.99,-4.44 -4.45,-4.44zm-3.01 7.87l0 0 -5.85 2.79c-0.16,0.08 -0.34,-0.04 -0.34,-0.21l0 -5.76c0,-0.17 0.18,-0.29 0.34,-0.21l5.85 2.97c0.17,0.09 0.17,0.34 -0.01,0.42z"/>
 </g>
</svg>
